<?xml version="1.0" standalone="no"?>
<!DOCTYPE svg PUBLIC "-//W3C//DTD SVG 20010904//EN"
 "http://www.w3.org/TR/2001/REC-SVG-20010904/DTD/svg10.dtd">
<svg version="1.0" xmlns="http://www.w3.org/2000/svg"
 width="1080.000000pt" height="1080.000000pt" viewBox="0 0 1080.000000 1080.000000"
 preserveAspectRatio="xMidYMid meet">

<g transform="translate(0.000000,1080.000000) scale(0.100000,-0.100000)"
fill="#000000" stroke="none">
<path d="M3999 8440 c-20 -5 -63 -21 -95 -36 -33 -14 -95 -39 -139 -54 -89
-30 -240 -107 -295 -150 -19 -15 -68 -46 -108 -70 -64 -37 -77 -50 -98 -94
-95 -204 -185 -526 -183 -658 0 -64 33 -327 48 -384 6 -23 24 -69 40 -104 17
-35 35 -86 41 -114 10 -49 13 -52 76 -86 42 -22 93 -62 138 -108 47 -49 91
-83 131 -102 96 -46 375 -100 513 -100 40 0 115 -5 165 -10 51 -6 167 -17 259
-25 164 -14 168 -14 235 7 81 25 153 27 188 4 14 -9 43 -36 66 -61 22 -24 62
-58 88 -74 45 -29 71 -64 71 -95 0 -8 -27 -38 -61 -67 -134 -118 -261 -246
-274 -275 -7 -17 -33 -62 -57 -100 -75 -116 -105 -166 -136 -230 -16 -34 -53
-95 -82 -137 -28 -42 -65 -104 -81 -137 -15 -32 -57 -101 -92 -152 -91 -132
-152 -236 -181 -309 -14 -34 -55 -114 -92 -177 -36 -63 -79 -148 -95 -190 -17
-41 -50 -114 -73 -161 -24 -47 -58 -131 -76 -186 -18 -55 -54 -148 -81 -206
-27 -58 -49 -111 -49 -117 0 -15 -55 -143 -110 -257 -27 -55 -59 -129 -70
-165 -12 -36 -41 -105 -65 -155 -45 -93 -49 -101 -119 -275 -76 -186 -81 -205
-80 -323 0 -122 13 -155 39 -95 8 20 18 63 21 95 11 97 50 236 78 277 14 21
26 44 26 50 0 22 63 161 87 193 14 17 30 53 38 80 16 60 92 272 105 295 5 9
32 67 59 128 28 61 64 139 80 173 42 89 74 174 82 221 8 49 34 113 105 261 29
61 68 145 88 188 20 43 47 93 60 110 13 18 60 104 103 192 107 216 158 310
204 374 22 30 39 64 39 77 0 12 23 51 50 85 28 34 50 66 50 72 0 5 26 48 59
97 32 48 66 110 75 138 10 28 24 56 32 62 7 7 14 18 14 25 0 6 9 20 20 30 12
10 29 37 39 59 23 52 67 103 206 239 134 132 142 133 196 37 80 -145 92 -166
110 -186 11 -11 19 -24 19 -28 0 -4 -16 -35 -35 -69 -52 -91 -57 -98 -91 -142
-17 -22 -44 -62 -59 -90 -16 -27 -51 -81 -78 -119 -27 -37 -51 -75 -55 -85 -8
-23 -152 -244 -167 -256 -17 -15 -95 -147 -101 -172 -4 -13 -10 -23 -14 -23
-4 0 -20 -19 -35 -42 -16 -24 -36 -54 -45 -68 -22 -33 -46 -81 -115 -225 -31
-66 -76 -149 -99 -185 -47 -73 -126 -217 -146 -269 -8 -19 -35 -71 -62 -115
-26 -45 -48 -85 -48 -89 0 -5 -13 -27 -29 -50 -42 -62 -87 -140 -95 -165 -14
-44 -106 -223 -140 -272 -20 -28 -61 -104 -93 -168 -31 -64 -76 -145 -99 -178
-41 -61 -89 -154 -115 -224 -7 -19 -23 -52 -36 -72 -13 -21 -47 -84 -76 -140
-29 -57 -64 -120 -78 -140 -26 -38 -83 -82 -126 -99 -28 -10 -30 -35 -4 -49
54 -28 135 9 191 88 39 53 163 298 230 451 29 67 56 112 125 206 12 17 44 75
70 130 27 55 69 132 95 170 25 39 63 108 84 155 47 104 87 177 139 253 21 32
66 115 98 185 61 128 126 249 205 377 24 39 55 97 70 130 59 129 211 391 309
530 23 33 80 122 126 199 82 137 115 176 285 337 27 26 61 62 75 80 l26 33 31
-23 c44 -31 61 -57 161 -254 49 -96 109 -208 134 -248 42 -71 190 -342 249
-459 16 -30 51 -113 79 -185 27 -71 88 -205 135 -297 46 -93 98 -202 114 -244
17 -42 71 -160 119 -262 49 -103 124 -268 166 -366 185 -433 438 -886 495
-886 10 0 21 4 24 8 3 5 10 58 16 118 11 114 8 147 -39 469 -18 121 -108 556
-150 725 -11 41 -31 129 -46 195 -15 66 -38 156 -50 200 -13 44 -35 134 -50
200 -15 66 -40 162 -56 213 -16 51 -29 102 -29 114 0 12 -9 40 -19 62 -11 23
-42 104 -70 181 -125 353 -273 652 -381 769 -121 132 -207 231 -254 293 -26
34 -78 91 -117 126 -87 80 -90 102 -15 129 26 10 75 43 109 72 33 30 98 73
146 97 47 24 105 61 128 82 34 32 51 39 95 44 46 5 65 1 124 -25 93 -40 291
-105 389 -128 114 -26 342 -26 445 0 83 21 183 57 238 85 51 26 189 171 198
207 8 35 40 99 66 135 11 14 23 50 27 80 5 30 15 90 24 134 41 212 46 291 26
445 -8 68 -21 109 -66 208 -31 68 -71 143 -90 167 -18 24 -33 47 -33 51 0 3
-29 66 -65 139 -46 95 -76 142 -105 168 -22 20 -52 57 -67 81 -26 42 -105 117
-170 164 -16 11 -58 27 -94 36 -35 8 -84 22 -108 30 -94 34 -285 15 -390 -39
-26 -13 -66 -28 -90 -35 -67 -18 -208 -88 -248 -123 -20 -18 -52 -57 -71 -87
-19 -30 -48 -70 -63 -87 -17 -20 -42 -74 -63 -140 -19 -60 -47 -141 -61 -182
-45 -132 -76 -571 -56 -784 16 -159 8 -184 -76 -247 -144 -108 -173 -125 -254
-155 -112 -41 -159 -69 -242 -145 l-67 -62 -33 19 c-24 14 -34 29 -41 58 -16
77 -38 115 -88 152 -83 61 -181 180 -216 264 -35 86 -67 235 -81 382 -17 172
-94 492 -140 585 -16 31 -55 116 -87 187 -67 153 -107 218 -177 292 -67 71
-96 85 -263 127 -156 39 -242 49 -295 36z m248 -386 c84 -41 149 -116 255
-294 53 -89 91 -196 103 -290 4 -30 20 -89 35 -130 37 -103 75 -357 67 -458
-9 -125 -33 -141 -265 -181 -149 -26 -304 -28 -386 -6 -76 20 -281 128 -329
174 -21 20 -47 52 -57 72 -11 20 -53 72 -95 115 -80 84 -92 109 -116 237 -12
66 -5 284 12 348 10 40 130 219 197 294 55 62 141 123 190 134 20 5 105 9 188
10 142 1 153 0 201 -25z m2841 -81 c132 -73 266 -228 324 -373 65 -163 88
-303 88 -525 0 -173 -17 -261 -60 -315 -40 -51 -119 -98 -183 -111 -106 -21
-477 -6 -652 27 -26 4 -179 126 -200 158 -23 35 -45 123 -45 181 1 48 18 144
75 420 31 153 41 171 219 416 86 119 156 157 289 158 73 1 84 -2 145 -36z
m-1357 -1622 c5 -14 13 -35 18 -46 22 -48 20 -53 -16 -75 l-36 -21 -53 21
c-29 12 -60 30 -69 40 -16 17 -14 21 21 60 21 23 47 45 58 49 33 13 67 0 77
-28z m-398 -52 c81 -42 96 -99 49 -184 -39 -72 -53 -69 -87 15 -16 39 -32 73
-37 76 -16 10 -7 52 17 78 27 30 29 30 58 15z m255 -231 c17 -22 24 -76 12
-97 -16 -32 -68 -29 -80 5 -14 37 -12 65 7 86 19 21 46 23 61 6z m135 -27 c34
-13 176 -121 212 -162 17 -19 58 -68 91 -109 34 -41 101 -115 149 -165 96
-100 148 -170 189 -260 16 -33 42 -86 58 -118 38 -75 127 -291 200 -487 12
-30 27 -68 34 -85 20 -46 85 -278 104 -370 20 -94 50 -225 66 -280 7 -27 25
-104 40 -170 15 -66 31 -125 35 -130 4 -6 12 -35 17 -65 5 -30 17 -84 25 -120
9 -36 20 -90 26 -120 5 -30 19 -98 31 -150 12 -52 27 -133 35 -180 8 -47 20
-110 26 -140 26 -135 53 -391 45 -425 l-7 -28 -24 23 c-13 12 -54 82 -91 154
-37 72 -80 154 -95 181 -16 28 -32 57 -35 65 -3 8 -34 74 -69 145 -35 72 -73
155 -85 185 -53 128 -87 208 -108 247 -12 23 -22 48 -22 55 0 8 -10 32 -21 53
-64 118 -138 274 -184 385 -27 67 -80 173 -133 270 -17 30 -41 87 -55 125 -13
39 -34 91 -46 117 -11 26 -21 51 -21 56 0 27 -105 232 -161 314 -10 15 -27 49
-37 76 -11 27 -46 89 -78 138 -32 49 -96 162 -142 252 -45 90 -89 171 -97 179
-8 8 -15 22 -15 32 0 10 -7 39 -16 64 l-16 47 31 29 c17 16 31 33 31 38 0 16
-42 50 -96 76 -53 27 -108 81 -101 101 8 24 55 17 101 -15 63 -45 99 -43 144
5 33 37 34 40 28 97 -6 52 -3 79 9 79 2 0 15 -4 28 -9z"/>
</g>
</svg>
