<!DOCTYPE svg PUBLIC "-//W3C//DTD SVG 1.1//EN" "http://www.w3.org/Graphics/SVG/1.1/DTD/svg11.dtd">
<!-- Uploaded to: SVG Repo, www.svgrepo.com, Transformed by: SVG Repo Mixer Tools -->
<svg fill="#000000" height="800px" width="800px" version="1.1" id="Layer_1" xmlns="http://www.w3.org/2000/svg" xmlns:xlink="http://www.w3.org/1999/xlink" viewBox="0 0 64 64" enable-background="new 0 0 64 64" xml:space="preserve" transform="rotate(0)">
<g id="SVGRepo_bgCarrier" stroke-width="0"/>
<g id="SVGRepo_tracerCarrier" stroke-linecap="round" stroke-linejoin="round"/>
<g id="SVGRepo_iconCarrier"> <g id="Paper-clip"> <path d="M20.0963345,64.0039597c-1.2553005,0-2.4945908-0.329998-3.6103001-0.9755974l-6.8608999-3.967701 c-3.4603915-2.0019989-4.6499-6.4491997-2.6522999-9.9141006L31.4435329,6.682662 c1.780302-3.0908,4.656702-5.3017001,8.0982113-6.2245998c3.4403877-0.9257,7.0340881-0.4502,10.1209984,1.335l1.5527916,0.8975 c6.4785004,3.7460997,8.7059975,12.0721998,4.9668007,18.5615005L38.2106323,52.4356613l-1.732399-0.9981003l17.9716988-31.1835995 c3.1884003-5.5351,1.2890015-12.6366997-4.2343979-15.8319998L48.6608353,3.523562 c-2.6220932-1.5157001-5.6748009-1.9200001-8.6006012-1.1338c-2.8838005,0.7734001-5.3921013,2.7010999-6.8838005,5.2909999 L8.7057428,50.1455612c-1.4482083,2.5107994-0.5859079,5.7334023,1.9208918,7.1846008l6.860899,3.9678001 c1.2109013,0.7011986,2.6235008,0.8857002,3.9741001,0.5253983c1.3549995-0.3633003,2.4883003-1.2333984,3.1904011-2.4511986 l19.5165977-33.8652c1.4687996-2.549799,0.5937996-5.8202991-1.9511986-7.2919998l0,0 c-0.0047989-0.0030003-0.0106926-0.0058994-0.0156021-0.0088005c-1.2079964-0.6952991-2.6102982-0.8778992-3.9579964-0.5194988 c-1.347702,0.3612995-2.4746017,1.2284985-3.1738014,2.4403992L22.086134,42.6563606l-1.7323914-0.9981003L33.337635,19.1289616 c0.9657974-1.6756992,2.5243988-2.8740005,4.3885994-3.3739996c1.8614006-0.5,3.8106003-0.2432003,5.482399,0.7226992 c0.0059013,0.0039005,0.0117989,0.0068016,0.017601,0.0107002c3.4921989,2.0244007,4.6923981,6.5156002,2.6748009,10.0165997 L26.3849335,60.3711624c-0.9696999,1.6816978-2.5346985,2.8828011-4.4061909,3.3838005 C21.3561344,63.9219627,20.723835,64.0039597,20.0963345,64.0039597z"/> </g> </g>
</svg>