<?xml version="1.0" standalone="no"?>
<!DOCTYPE svg PUBLIC "-//W3C//DTD SVG 20010904//EN"
 "http://www.w3.org/TR/2001/REC-SVG-20010904/DTD/svg10.dtd">
<svg version="1.0" xmlns="http://www.w3.org/2000/svg"
 width="300.000000pt" height="257.000000pt" viewBox="0 0 300.000000 257.000000"
 preserveAspectRatio="xMidYMid meet">
<metadata>
Created by potrace 1.10, written by Peter Selinger 2001-2011
</metadata>
<g transform="translate(0.000000,257.000000) scale(0.100000,-0.100000)"
fill="#000000" stroke="none">
<path d="M240 2540 c-19 -3 -45 -12 -56 -18 -29 -16 -115 -134 -150 -207 -28
-58 -29 -66 -30 -220 -1 -88 2 -200 6 -250 5 -49 13 -142 18 -205 6 -63 13
-149 16 -190 3 -41 10 -131 16 -200 5 -69 12 -159 15 -200 14 -180 64 -396
112 -478 59 -103 200 -152 451 -156 23 -1 42 -3 42 -7 0 -3 -13 -18 -30 -34
-24 -23 -30 -25 -31 -12 -3 33 -4 37 -14 40 -9 2 -29 -83 -21 -91 11 -10 47
12 87 53 26 27 53 45 67 45 27 0 27 3 2 -48 -11 -22 -20 -53 -20 -67 0 -20 5
-25 25 -25 34 0 109 39 174 90 29 23 55 39 58 36 3 -3 -15 -34 -41 -70 -26
-36 -62 -95 -81 -131 -60 -112 -41 -126 51 -39 132 125 260 236 282 245 12 5
25 16 28 24 4 8 11 15 17 15 5 0 2 -9 -9 -21 -10 -12 -18 -23 -16 -25 1 -2
-15 -28 -36 -57 -95 -129 -178 -279 -166 -299 13 -21 45 6 205 175 96 100 181
183 189 185 13 2 13 1 0 -10 -17 -14 -134 -159 -160 -198 -8 -12 -32 -45 -53
-73 -24 -32 -34 -54 -28 -60 11 -11 27 2 181 144 131 120 229 197 262 205 16
3 26 10 23 14 -3 5 3 14 14 19 41 23 42 9 1 -31 -24 -24 -70 -77 -104 -118
-33 -41 -63 -77 -66 -80 -27 -26 -120 -141 -120 -149 0 -22 26 -10 70 32 174
167 345 298 408 312 17 3 32 3 32 -1 0 -4 -26 -35 -57 -68 -59 -62 -96 -105
-168 -192 -22 -26 -59 -68 -82 -93 -37 -40 -40 -46 -23 -49 25 -4 56 17 200
138 63 53 135 110 160 127 53 36 159 93 172 93 9 0 -41 -60 -177 -215 -96
-110 -106 -123 -95 -130 10 -6 168 120 193 154 25 34 234 198 242 189 2 -2
-26 -35 -64 -73 -88 -92 -161 -179 -161 -194 0 -15 25 -14 42 2 7 7 47 41 88
77 41 36 77 67 80 70 11 11 119 88 170 121 125 82 141 77 63 -16 -87 -104
-173 -217 -173 -227 0 -23 36 4 132 97 139 135 185 171 238 185 58 15 63 19
50 35 -8 9 -7 14 4 18 15 6 15 -28 1 -86 -10 -39 8 -35 94 23 41 27 77 48 80
45 2 -3 -4 -12 -15 -20 -16 -13 -16 -14 -1 -9 9 3 17 1 17 -5 0 -6 -3 -11 -7
-12 -5 0 -20 -2 -35 -3 -30 -2 -46 -14 -165 -130 -46 -45 -83 -86 -83 -93 0
-26 26 -11 70 41 25 29 59 62 75 73 17 12 62 41 100 66 108 71 143 103 128
118 -10 10 -16 10 -25 1 -9 -9 -14 -7 -23 5 -10 14 -20 11 -83 -31 -39 -25
-74 -50 -77 -56 -3 -5 -11 -10 -16 -10 -11 0 -5 30 14 68 8 18 8 25 -2 31 -35
22 -147 -39 -257 -143 -43 -41 -81 -72 -83 -70 -2 1 19 29 46 61 27 32 59 72
70 88 22 32 102 64 214 85 36 7 75 24 105 45 l48 35 22 -28 c27 -33 43 -23 20
13 -16 25 -16 28 3 68 19 39 29 79 47 182 4 22 9 335 11 696 l4 657 -73 54
c-40 30 -82 59 -93 65 -29 14 -119 31 -200 38 -38 4 -117 10 -175 15 -58 5
-159 9 -225 10 -106 0 -161 4 -360 26 -102 11 -277 34 -284 38 -3 2 -87 14
-186 25 -99 12 -238 32 -310 45 -182 34 -274 45 -470 56 -262 15 -337 17 -375
10z m305 -30 c242 -16 368 -30 500 -56 66 -13 199 -33 295 -44 96 -11 229 -29
295 -40 66 -10 147 -21 180 -25 33 -3 76 -8 95 -10 135 -17 261 -25 375 -25
139 0 386 -22 469 -41 61 -14 76 -23 152 -82 l62 -48 -5 -612 c-3 -456 -8
-640 -19 -724 -15 -114 -33 -185 -50 -190 -10 -2 -85 98 -202 272 -85 125
-160 230 -212 295 -88 110 -151 188 -180 220 -16 19 -56 67 -88 107 -55 70
-72 84 -72 63 0 -11 120 -166 206 -265 70 -82 245 -317 330 -445 39 -58 98
-142 132 -187 34 -45 62 -84 62 -86 0 -3 -13 -10 -30 -17 -17 -7 -30 -16 -30
-20 0 -4 -8 -11 -17 -15 -29 -12 -226 -66 -253 -69 -14 -2 -37 -8 -51 -14 -33
-13 -200 -23 -411 -25 -156 -2 -167 -1 -162 16 7 22 -25 23 -66 2 -36 -19
-160 -30 -160 -15 0 6 7 13 15 16 17 7 20 30 5 39 -6 4 -37 -7 -69 -23 -37
-19 -82 -32 -120 -36 -65 -7 -76 2 -36 28 14 9 25 21 25 26 0 20 -36 9 -70
-20 -41 -35 -30 -32 -107 -35 -56 -2 -63 0 -63 17 0 28 -28 33 -58 11 -41 -30
-52 -31 -137 -23 -44 4 -87 4 -96 -1 -9 -5 -54 -6 -98 -2 -66 5 -81 9 -76 20
27 73 7 83 -48 26 -40 -40 -35 -39 -202 -28 -81 6 -245 40 -245 52 0 10 226
470 240 488 8 10 38 66 145 265 34 63 76 138 93 166 36 61 72 141 72 160 0 28
-16 13 -39 -39 -13 -28 -50 -97 -81 -152 -31 -55 -76 -136 -100 -180 -24 -44
-53 -98 -65 -120 -85 -155 -145 -267 -145 -271 0 -2 -29 -64 -65 -139 -36 -74
-65 -139 -65 -144 0 -42 -66 4 -100 69 -44 85 -91 328 -105 540 -5 77 -19 248
-30 375 -2 28 -7 91 -11 140 -3 50 -8 92 -9 95 -2 3 -7 44 -10 90 -4 47 -9 94
-12 105 -12 56 -14 197 -4 243 25 117 131 290 195 318 38 16 121 17 331 4z
m239 -2065 c-4 -8 -12 -15 -20 -15 -8 0 -11 6 -8 15 4 8 12 15 20 15 8 0 11
-6 8 -15z m1622 -38 c-99 -63 -173 -116 -236 -169 -86 -73 -69 -39 30 57 34
33 68 73 76 88 8 15 18 26 22 24 4 -3 27 -1 52 3 68 11 78 11 56 -3z m-1478
-12 c3 -3 -102 -67 -146 -89 -19 -10 -36 -15 -39 -12 -3 2 6 29 20 59 l25 55
68 -5 c38 -3 70 -7 72 -8z m602 6 c0 -4 -17 -20 -37 -33 -21 -14 -84 -68 -139
-122 -56 -53 -105 -96 -109 -96 -6 0 25 47 56 85 10 11 43 52 74 90 53 65 60
70 103 76 26 3 48 7 50 7 1 1 2 -2 2 -7z m220 -1 c0 -5 -15 -17 -32 -26 -18
-9 -66 -44 -107 -78 -111 -92 -121 -97 -61 -27 107 125 112 130 155 134 22 2
41 4 43 5 1 1 2 -2 2 -8z m495 -11 c-4 -5 -13 -9 -22 -9 -24 0 -113 -63 -195
-137 -40 -37 -76 -71 -80 -77 -4 -6 -9 -8 -12 -6 -2 3 12 24 32 46 144 163
158 182 130 186 -7 1 21 4 62 7 80 6 94 5 85 -10z m-1105 7 c0 -2 -19 -16 -42
-31 -23 -16 -86 -71 -140 -123 -54 -52 -98 -91 -98 -86 0 6 29 54 64 107 36
53 67 106 71 117 6 18 15 20 76 20 38 0 69 -2 69 -4z m124 -93 c-53 -54 -123
-128 -157 -166 -33 -37 -62 -65 -64 -63 -7 7 56 116 117 201 31 44 62 90 69
103 10 19 20 22 71 22 l60 0 -96 -97z m741 58 c-103 -48 -177 -100 -295 -205
-52 -47 -96 -83 -98 -81 -2 2 47 61 110 132 62 71 124 143 138 160 l25 32 100
0 100 0 -80 -38z"/>
<path d="M102 2302 c13 -18 125 -126 218 -208 91 -82 328 -273 420 -340 53
-38 118 -88 145 -111 135 -114 160 -133 170 -133 7 0 30 -13 51 -28 58 -41
145 -88 179 -97 42 -10 441 -7 462 3 10 5 54 26 98 48 128 62 373 197 463 255
123 79 393 356 446 457 21 41 35 76 33 79 -10 10 -28 -9 -51 -55 -34 -68 -70
-110 -228 -269 -145 -147 -212 -198 -358 -276 -47 -24 -132 -71 -190 -103
-214 -120 -208 -119 -430 -122 -216 -4 -245 1 -330 53 -30 19 -80 49 -110 66
-30 18 -95 67 -145 108 -49 41 -148 119 -220 172 -213 161 -317 247 -509 420
-98 89 -110 99 -118 99 -5 0 -3 -8 4 -18z"/>
</g>
</svg>
