<svg xmlns="http://www.w3.org/2000/svg" version="1.0" width="300.000000pt" height="302.000000pt" viewBox="0 0 300.000000 302.000000" preserveAspectRatio="xMidYMid meet">
<metadata fill="#ffffff">
Created by potrace 1.10, written by Peter Selinger 2001-2011
</metadata>
<g transform="translate(0.000000,302.000000) scale(0.100000,-0.100000)" fill="#ffffff" stroke="none">
<path d="M1490 2961 c-17 -25 -69 -131 -110 -226 -21 -48 -51 -151 -80 -271 -17 -71 -38 -150 -46 -175 -8 -26 -20 -74 -27 -108 -7 -34 -17 -63 -21 -64 -8 -2 -24 41 -46 128 -20 76 -76 200 -132 295 -143 241 -162 269 -174 258 -11 -11 -13 -310 -4 -408 15 -143 18 -366 6 -346 -50 85 -74 105 -373 313 -180 125 -232 154 -305 167 -30 5 -38 4 -38 -8 0 -8 8 -21 18 -28 23 -18 143 -155 172 -198 13 -19 27 -37 30 -40 16 -15 63 -93 90 -152 26 -55 34 -93 50 -225 24 -196 33 -237 77 -338 28 -64 46 -90 95 -135 65 -60 113 -90 140 -90 29 0 21 15 -14 28 -18 7 -64 41 -101 75 -101 93 -135 182 -168 446 -22 175 -42 241 -102 338 -38 61 -129 179 -191 248 -25 27 -44 51 -42 52 8 8 89 -37 196 -110 346 -234 412 -288 453 -371 16 -31 33 -56 39 -56 7 0 8 65 4 203 -3 111 -9 290 -12 397 l-5 195 39 -65 c150 -248 212 -374 228 -460 4 -19 16 -57 26 -85 19 -46 25 -68 27 -87 1 -5 8 -8 16 -8 8 0 18 16 24 38 6 20 39 150 75 287 35 138 77 284 91 325 25 70 98 226 113 242 4 4 7 -82 7 -190 0 -178 2 -204 23 -272 35 -110 58 -209 82 -350 26 -150 27 -153 43 -148 19 7 180 270 252 413 38 76 75 169 91 225 39 146 41 147 48 25 4 -60 8 -137 11 -170 2 -33 4 -176 4 -317 1 -146 5 -258 10 -258 5 0 19 18 30 41 35 67 176 260 228 313 51 53 160 136 178 136 5 0 55 29 110 65 54 35 101 63 102 61 2 -2 -11 -25 -30 -52 -58 -87 -88 -207 -121 -474 -8 -69 -17 -185 -20 -259 -8 -169 -26 -214 -124 -310 -113 -111 -223 -170 -314 -171 -24 0 -58 -22 -58 -38 0 -4 24 -18 53 -32 l52 -25 2 -154 c1 -84 3 -154 5 -155 16 -9 127 -94 142 -108 28 -25 34 -23 76 25 44 48 62 44 36 -9 -16 -35 -16 -37 3 -55 25 -24 38 -84 21 -104 -6 -7 -24 -15 -38 -17 -26 -3 -27 -4 -27 -74 0 -77 -18 -114 -57 -114 -16 0 -18 9 -18 84 0 91 -5 103 -60 131 -34 17 -135 129 -153 168 -6 15 -16 28 -22 28 -36 5 -242 -4 -250 -11 -6 -5 -9 -84 -7 -209 3 -225 -1 -214 77 -186 80 29 90 11 15 -26 -54 -26 -57 -31 -35 -69 8 -14 14 -44 15 -67 0 -37 -3 -43 -24 -49 -32 -8 -38 -3 -62 45 -16 35 -23 41 -52 41 -18 0 -73 -12 -121 -26 -113 -34 -124 -31 -116 38 10 90 12 94 57 114 23 10 47 19 52 19 27 0 28 34 2 122 -15 49 -30 132 -34 184 l-7 94 -45 5 c-25 3 -95 4 -156 2 l-112 -3 -4 -27 c-14 -80 -81 -395 -94 -441 -8 -29 -13 -56 -10 -59 3 -3 17 0 31 6 14 7 39 12 55 12 25 0 30 -4 30 -25 0 -33 -38 -57 -95 -57 -44 -1 -48 -4 -83 -54 -39 -56 -53 -64 -114 -64 -26 0 -40 6 -47 18 -13 24 -2 105 15 115 20 11 17 23 -11 51 -37 38 -35 111 6 183 38 66 63 165 89 348 11 77 22 150 26 163 5 16 2 22 -10 22 -9 0 -16 -3 -16 -7 0 -5 -18 -17 -40 -27 -24 -12 -57 -41 -82 -75 -125 -167 -263 -311 -299 -311 -22 0 -37 -22 -19 -28 7 -3 35 -26 62 -52 34 -33 48 -55 48 -73 0 -46 -56 -25 -62 23 -4 33 -32 37 -77 12 -20 -11 -55 -23 -78 -27 l-43 -7 0 56 c0 45 4 57 20 66 28 15 25 27 -15 87 -56 83 -53 86 68 79 56 -4 107 -3 113 1 6 4 18 22 27 39 9 17 77 92 151 168 75 76 134 142 131 147 -3 4 -38 18 -78 29 -40 12 -114 37 -166 56 -128 48 -294 95 -302 86 -3 -4 -12 -26 -19 -50 -21 -66 -50 -92 -103 -92 -27 0 -49 6 -57 15 -7 8 -15 55 -18 104 l-5 88 32 6 c31 6 32 9 31 49 -3 69 -3 68 43 68 34 0 50 -7 82 -36 144 -130 298 -183 540 -189 72 -2 151 -6 178 -10 40 -6 47 -5 47 9 0 12 -9 16 -35 16 -46 0 -104 30 -133 69 -35 48 -143 161 -154 161 -21 0 0 -32 70 -104 76 -79 89 -99 47 -72 -14 9 -37 23 -52 32 -24 14 -23 11 6 -15 19 -17 50 -36 69 -42 57 -19 19 -25 -95 -16 -198 15 -342 67 -453 164 -60 53 -81 63 -133 63 -51 0 -57 -8 -57 -76 0 -37 -3 -44 -19 -44 -29 0 -33 -13 -34 -108 -1 -86 6 -114 39 -146 19 -20 86 -21 122 -2 24 13 62 72 75 117 5 14 11 14 69 -1 34 -9 70 -19 78 -22 53 -20 282 -98 313 -108 34 -10 51 -30 27 -30 -15 0 -224 -216 -251 -260 l-24 -40 -107 1 c-58 1 -112 -2 -118 -6 -18 -11 -4 -61 31 -110 l32 -44 -22 -18 c-19 -16 -22 -26 -19 -83 l3 -65 48 -3 c34 -2 62 3 92 18 45 22 65 20 65 -5 0 -24 30 -45 66 -45 19 0 34 3 35 8 0 4 2 15 4 26 6 32 -14 70 -57 108 l-41 36 29 15 c35 19 84 71 192 202 121 148 147 175 166 175 9 0 15 -4 12 -9 -3 -5 -15 -69 -25 -144 -26 -177 -45 -249 -87 -324 -42 -76 -47 -144 -12 -188 17 -22 19 -31 10 -46 -16 -26 -14 -120 3 -142 19 -26 82 -33 128 -14 22 10 49 34 69 61 28 41 36 46 70 46 74 0 123 45 116 106 -3 29 -4 29 -60 27 -55 -2 -57 -1 -48 20 8 18 63 271 89 407 l6 35 131 2 131 2 11 -102 c6 -56 20 -129 31 -162 11 -33 21 -67 21 -75 0 -8 -20 -23 -45 -34 -71 -29 -86 -55 -83 -145 l3 -76 48 -3 c29 -2 68 4 100 16 103 38 113 37 147 -13 26 -38 36 -45 65 -45 60 0 82 61 50 137 -19 44 -19 40 9 47 32 8 86 54 86 72 0 24 -26 27 -84 10 -30 -9 -58 -16 -64 -16 -5 0 -9 74 -9 180 l0 180 52 0 c29 0 79 3 111 6 l59 6 20 -38 c24 -45 145 -170 175 -179 18 -6 20 -15 20 -80 0 -41 4 -85 10 -99 13 -36 53 -34 91 3 26 27 29 36 29 96 0 54 3 67 18 71 42 13 47 21 47 78 0 38 -6 61 -17 72 -14 14 -14 22 -4 53 17 50 14 66 -9 69 -13 2 -37 -12 -64 -37 l-44 -40 -46 40 c-25 22 -57 48 -72 56 l-26 15 4 132 c2 72 1 141 -2 153 -3 14 -23 32 -52 47 l-47 23 61 11 c33 6 75 17 94 25 59 25 196 135 247 198 65 79 82 135 82 263 0 55 5 133 10 171 5 39 11 97 15 130 30 279 86 435 203 556 57 61 39 76 -26 22 -47 -40 -183 -126 -302 -192 -61 -34 -206 -166 -244 -221 -9 -14 -44 -65 -77 -115 -33 -49 -62 -91 -63 -93 -2 -1 -3 129 -3 290 0 255 -11 458 -29 551 -6 30 -34 38 -34 9 0 -34 -52 -216 -86 -303 -37 -93 -110 -232 -179 -339 -23 -36 -55 -87 -71 -115 -15 -28 -30 -43 -31 -35 -2 8 -14 81 -28 162 -14 80 -39 190 -57 245 -30 94 -31 106 -37 322 -4 155 -10 226 -17 228 -7 2 -22 -10 -34 -26z" fill="#ffffff"/>
</g>
</svg>