<?xml version="1.0" standalone="no"?>
<!DOCTYPE svg PUBLIC "-//W3C//DTD SVG 20010904//EN"
 "http://www.w3.org/TR/2001/REC-SVG-20010904/DTD/svg10.dtd">
<svg version="1.0" xmlns="http://www.w3.org/2000/svg"
 width="117.000000pt" height="300.000000pt" viewBox="0 0 117.000000 300.000000"
 preserveAspectRatio="xMidYMid meet">
<metadata>
Created by potrace 1.10, written by Peter Selinger 2001-2011
</metadata>
<g transform="translate(0.000000,300.000000) scale(0.100000,-0.100000)"
fill="#000000" stroke="none">
<path d="M106 2842 c-3 -5 2 -28 11 -53 12 -35 15 -94 15 -289 0 -319 -12
-393 -96 -573 -41 -87 -46 -112 -15 -74 35 46 96 189 116 272 15 67 18 123 18
342 0 145 2 263 5 263 10 0 84 -145 142 -280 77 -175 113 -278 139 -392 11
-51 69 -240 129 -419 60 -179 127 -402 149 -495 75 -313 121 -469 187 -629 18
-44 56 -147 84 -230 29 -82 60 -168 70 -190 9 -22 22 -52 28 -67 12 -28 32
-38 32 -15 0 6 -12 39 -26 72 -14 33 -43 110 -64 170 -62 175 -85 237 -104
280 -46 107 -127 383 -185 635 -18 74 -69 248 -115 385 -134 403 -154 468
-161 515 -23 148 -218 602 -292 679 -48 49 -45 67 5 33 99 -69 489 -236 727
-312 120 -38 265 -53 265 -27 0 12 -10 16 -37 16 -113 -1 -209 26 -465 127
-75 30 -139 54 -142 54 -22 0 -297 136 -359 178 -54 36 -54 35 -61 24z"/>
</g>
</svg>
