<?xml version="1.0" standalone="no"?>
<!DOCTYPE svg PUBLIC "-//W3C//DTD SVG 20010904//EN"
 "http://www.w3.org/TR/2001/REC-SVG-20010904/DTD/svg10.dtd">
<svg version="1.0" xmlns="http://www.w3.org/2000/svg"
 width="87.000000pt" height="300.000000pt" viewBox="0 0 87.000000 300.000000"
 preserveAspectRatio="xMidYMid meet">
<metadata>
Created by potrace 1.10, written by Peter Selinger 2001-2011
</metadata>
<g transform="translate(0.000000,300.000000) scale(0.100000,-0.100000)"
fill="#000000" stroke="none">
<path d="M603 2938 c-53 -60 -157 -257 -150 -286 2 -10 20 16 44 69 48 102
122 221 132 214 8 -4 12 -29 30 -190 14 -118 5 -686 -12 -806 -30 -208 -116
-420 -291 -719 -108 -184 -228 -434 -266 -554 -39 -120 -50 -234 -44 -446 4
-138 18 -260 24 -205 1 11 2 24 1 28 -1 4 -3 74 -6 155 -7 208 7 344 49 473
40 124 158 364 292 595 140 242 220 438 253 619 33 184 42 743 15 915 -18 117
-19 116 29 76 57 -49 150 -116 159 -116 22 0 -13 33 -103 95 -56 38 -105 78
-110 87 -13 24 -21 23 -46 -4z"/>
</g>
</svg>
