<svg xmlns="http://www.w3.org/2000/svg" version="1.0" width="300.000000pt" height="49.000000pt" viewBox="0 0 300.000000 49.000000" preserveAspectRatio="xMidYMid meet">
<metadata fill="#f5f5f5">
Created by potrace 1.10, written by Peter Selinger 2001-2011
</metadata>
<g transform="translate(0.000000,49.000000) scale(0.100000,-0.100000)" fill="#f5f5f5" stroke="none">
<path d="M2649 477 c18 -22 198 -142 262 -173 27 -14 49 -29 49 -35 0 -13 -1820 -12 -1981 1 -68 6 -140 12 -159 15 -93 13 -260 19 -522 19 -262 1 -313 -3 -295 -20 3 -4 145 -8 314 -10 279 -2 508 -15 588 -31 17 -3 458 -8 980 -10 523 -2 957 -3 965 -3 8 -1 -1 -9 -21 -19 -38 -19 -121 -80 -127 -93 -2 -5 -8 -8 -13 -8 -10 0 -125 -86 -134 -101 -4 -5 1 -9 9 -9 14 0 171 101 186 119 30 37 133 111 153 111 49 0 85 12 90 31 6 22 -6 33 -118 99 -49 29 -110 68 -135 86 -25 18 -59 36 -75 40 -27 7 -29 6 -16 -9z" fill="#f5f5f5"/>
</g>
</svg>