<?xml version="1.0" standalone="no"?>
<!DOCTYPE svg PUBLIC "-//W3C//DTD SVG 20010904//EN"
 "http://www.w3.org/TR/2001/REC-SVG-20010904/DTD/svg10.dtd">
<svg version="1.0" xmlns="http://www.w3.org/2000/svg"
 width="300.000000pt" height="63.000000pt" viewBox="0 0 300.000000 63.000000"
 preserveAspectRatio="xMidYMid meet">
<metadata>
Created by potrace 1.10, written by Peter Selinger 2001-2011
</metadata>
<g transform="translate(0.000000,63.000000) scale(0.100000,-0.100000)"
fill="#000000" stroke="none">
<path d="M332 581 c-12 -16 -61 -62 -109 -102 -49 -40 -90 -76 -93 -79 -20
-23 -93 -71 -109 -73 -10 0 -17 -6 -14 -13 5 -13 51 -16 59 -3 3 5 9 7 14 4
11 -7 1837 -7 1995 -1 118 5 184 12 280 26 33 6 192 10 353 10 253 0 292 2
292 15 0 13 -40 15 -299 15 -164 0 -320 -4 -347 -9 -136 -26 -373 -32 -1297
-34 l-968 -2 25 20 c13 11 46 36 73 55 66 48 193 170 193 187 0 23 -25 14 -48
-16z"/>
<path d="M55 290 c-4 -7 6 -26 24 -44 30 -31 42 -54 21 -41 -14 8 -13 -8 1
-22 6 -6 19 -9 28 -6 11 3 12 2 4 -4 -9 -7 11 -31 73 -89 48 -43 93 -80 100
-82 25 -6 14 16 -29 60 -24 24 -61 65 -83 93 -21 27 -46 57 -55 66 -9 9 -21
23 -25 30 -18 29 -52 51 -59 39z"/>
</g>
</svg>
