<?xml version="1.0" encoding="utf-8"?>
<svg viewBox="0 0 201 221" style="shape-rendering:geometricPrecision; text-rendering:geometricPrecision; image-rendering:optimizeQuality; fill-rule:evenodd; clip-rule:evenodd" xmlns="http://www.w3.org/2000/svg">
  <g>
    <path style="opacity:0.004" fill="#fefffe" d="M 188.5,1.5 C 189.833,2.16667 189.833,2.16667 188.5,1.5 Z"/>
  </g>
  <g>
    <path style="opacity:0.094" fill="#e5e3e3" d="M 86.5,4.5 C 86.2876,7.7124 84.6209,9.7124 81.5,10.5C 83.177,8.46018 84.8437,6.46018 86.5,4.5 Z"/>
  </g>
  <g>
    <path style="opacity: 0.004; stroke: rgb(0, 0, 0); paint-order: fill;" fill="#fefffe" d="M 197.5,9.5 C 198.833,10.1667 198.833,10.1667 197.5,9.5 Z"/>
  </g>
  <g>
    <path style="opacity: 0.004; stroke: rgb(0, 0, 0); paint-order: fill;" d="M 47.5,11.5 C 48.8333,12.1667 48.8333,12.1667 47.5,11.5 Z"/>
  </g>
  <g>
    <path style="opacity: 0.004; stroke: rgb(0, 0, 0); paint-order: fill;" d="M 146.5,13.5 C 147.833,14.1667 147.833,14.1667 146.5,13.5 Z"/>
  </g>
  <g>
    <path style="opacity: 0.004; stroke: rgb(0, 0, 0); paint-order: fill;" d="M 119.5,14.5 C 120.833,15.1667 120.833,15.1667 119.5,14.5 Z"/>
  </g>
  <g>
    <path style="opacity: 0.004; stroke: rgb(0, 0, 0); paint-order: fill;" d="M 152.5,15.5 C 153.833,16.1667 153.833,16.1667 152.5,15.5 Z"/>
  </g>
  <g>
    <path style="opacity: 0.997; stroke: rgb(0, 0, 0); paint-order: fill;" d="M 94.5,12.5 C 97.4062,13.108 99.7396,14.4413 101.5,16.5C 100.178,16.67 99.0113,16.3366 98,15.5C 97.342,17.108 97.842,18.2747 99.5,19C 96.9893,19.239 95.3227,18.0723 94.5,15.5C 94.5,14.5 94.5,13.5 94.5,12.5 Z"/>
  </g>
  <g>
    <path style="opacity: 0.914; stroke: rgb(0, 0, 0); paint-order: fill;" d="M 81.5,13.5 C 79.7739,15.8201 79.1072,18.4867 79.5,21.5C 76.0897,21.3838 74.7564,23.0504 75.5,26.5C 74.1266,26.3433 72.7932,26.51 71.5,27C 69.4695,30.51 66.4695,32.6767 62.5,33.5C 68.2078,26.1284 74.5411,19.4618 81.5,13.5 Z"/>
  </g>
  <g>
    <path style="opacity: 0.998; stroke: rgb(0, 0, 0); paint-order: fill;" d="M 101.5,16.5 C 107.175,19.2291 112.841,21.8957 118.5,24.5C 118.5,24.8333 118.5,25.1667 118.5,25.5C 116.5,25.5 114.5,25.5 112.5,25.5C 112.715,27.1788 112.048,28.1788 110.5,28.5C 110.5,26.8333 110.5,25.1667 110.5,23.5C 107.482,23.7038 104.482,24.0371 101.5,24.5C 101.5,21.8333 101.5,19.1667 101.5,16.5 Z"/>
  </g>
  <g>
    <path style="opacity: 0.075; stroke: rgb(0, 0, 0); paint-order: fill;" d="M 81.5,10.5 C 81.5,11.5 81.5,12.5 81.5,13.5C 74.5411,19.4618 68.2078,26.1284 62.5,33.5C 59.5,35.8333 56.8333,38.5 54.5,41.5C 53.8333,42.1667 53.1667,42.8333 52.5,43.5C 46.0021,46.3246 40.6687,50.6579 36.5,56.5C 36.1667,56.5 35.8333,56.5 35.5,56.5C 35.1667,56.5 34.8333,56.5 34.5,56.5C 39.4233,50.0762 45.4233,44.9096 52.5,41C 62.0334,30.6351 71.7,20.4685 81.5,10.5 Z"/>
  </g>
  <g>
    <path style="opacity: 1; stroke: rgb(0, 0, 0); paint-order: fill;" d="M 93.5,11.5 C 94.1667,11.5 94.5,11.8333 94.5,12.5C 94.5,13.5 94.5,14.5 94.5,15.5C 92.4252,16.6196 90.2585,17.6196 88,18.5C 88.1433,19.8649 88.6433,21.1982 89.5,22.5C 88.0695,22.5792 86.7362,22.2458 85.5,21.5C 84.4623,24.3281 83.129,26.9948 81.5,29.5C 83.0072,30.7388 84.1739,30.4054 85,28.5C 85.3095,29.7659 85.8095,30.9326 86.5,32C 84.4788,32.4012 83.1455,33.5679 82.5,35.5C 83.3094,37.0709 83.6427,38.7376 83.5,40.5C 82.1779,40.33 81.0113,40.6634 80,41.5C 79.7902,40.1971 79.9569,38.8638 80.5,37.5C 78.5182,34.4148 75.6849,32.4148 72,31.5C 65.6139,35.6069 66.1139,36.9402 73.5,35.5C 72.8333,37.5 72.1667,39.5 71.5,41.5C 70.5,41.5 69.5,41.5 68.5,41.5C 68.6621,43.5273 68.4955,45.5273 68,47.5C 65.4006,43.6615 64.2339,44.3281 64.5,49.5C 63.5655,50.5676 63.2322,51.901 63.5,53.5C 61.0459,53.3205 58.8792,53.9872 57,55.5C 54.359,54.2871 53.1924,55.2871 53.5,58.5C 55.4147,58.2155 57.0813,58.5489 58.5,59.5C 56.139,59.6741 53.8056,60.0074 51.5,60.5C 50.8933,64.9028 52.56,66.2361 56.5,64.5C 58.9042,65.0079 59.5709,66.1745 58.5,68C 56.8659,68.4935 55.1992,68.6602 53.5,68.5C 52.609,67.8902 51.609,67.5569 50.5,67.5C 50.1667,66.8333 49.8333,66.1667 49.5,65.5C 47.8867,63.9121 45.8867,62.9121 43.5,62.5C 43.3433,61.1266 43.51,59.7932 44,58.5C 45.646,56.4523 46.8127,54.7856 47.5,53.5C 47.281,54.675 47.6143,55.675 48.5,56.5C 50.5,54.8333 52.5,53.1667 54.5,51.5C 55.2164,52.311 56.0497,52.9777 57,53.5C 59.1403,51.617 61.1403,49.617 63,47.5C 63.49,46.2068 63.6567,44.8734 63.5,43.5C 64.675,43.719 65.675,43.3857 66.5,42.5C 66.1667,42.1667 65.8333,41.8333 65.5,41.5C 61.3788,43.2517 57.0454,43.9184 52.5,43.5C 53.1667,42.8333 53.8333,42.1667 54.5,41.5C 58.1667,39.8333 60.8333,37.1667 62.5,33.5C 66.4695,32.6767 69.4695,30.51 71.5,27C 72.7932,26.51 74.1266,26.3433 75.5,26.5C 74.7564,23.0504 76.0897,21.3838 79.5,21.5C 79.1072,18.4867 79.7739,15.8201 81.5,13.5C 83.755,12.3524 85.5883,10.6857 87,8.5C 87.2022,10.2556 87.7022,11.9223 88.5,13.5C 89.3857,12.675 89.719,11.675 89.5,10.5C 90.9587,10.4326 92.2921,10.7659 93.5,11.5 Z"/>
  </g>
  <g>
    <path style="opacity: 0.004; stroke: rgb(0, 0, 0); paint-order: fill;" d="M 182.5,26.5 C 183.833,27.1667 183.833,27.1667 182.5,26.5 Z"/>
  </g>
  <g>
    <path style="opacity: 0.725; stroke: rgb(0, 0, 0); paint-order: fill;" d="M 119.5,25.5 C 121.674,25.7497 123.341,26.7497 124.5,28.5C 122.011,28.7593 120.344,27.7593 119.5,25.5 Z"/>
  </g>
  <g>
    <path style="opacity: 1; stroke: rgb(0, 0, 0); paint-order: fill;" d="M 94.5,15.5 C 95.3227,18.0723 96.9893,19.239 99.5,19C 97.842,18.2747 97.342,17.108 98,15.5C 99.0113,16.3366 100.178,16.67 101.5,16.5C 101.5,19.1667 101.5,21.8333 101.5,24.5C 104.482,24.0371 107.482,23.7038 110.5,23.5C 110.5,25.1667 110.5,26.8333 110.5,28.5C 111.398,29.1577 112.398,29.8243 113.5,30.5C 112.975,31.1924 112.308,31.6924 111.5,32C 112.823,32.8159 113.489,33.9826 113.5,35.5C 111.8,35.3739 110.3,34.7073 109,33.5C 107.113,34.7547 105.28,34.7547 103.5,33.5C 103.67,32.1779 103.337,31.0113 102.5,30C 99.284,29.9974 96.6174,28.8308 94.5,26.5C 93.1585,28.0049 91.4918,28.6715 89.5,28.5C 89.5,26.5 89.5,24.5 89.5,22.5C 88.6433,21.1982 88.1433,19.8649 88,18.5C 90.2585,17.6196 92.4252,16.6196 94.5,15.5 Z"/>
  </g>
  <g>
    <path style="opacity: 0.004; stroke: rgb(0, 0, 0); paint-order: fill;" d="M 191.5,31.5 C 192.833,32.1667 192.833,32.1667 191.5,31.5 Z"/>
  </g>
  <g>
    <path style="opacity: 0.004; stroke: rgb(0, 0, 0); paint-order: fill;" fill="#fefffe" d="M 23.5,32.5 C 24.8333,33.1667 24.8333,33.1667 23.5,32.5 Z"/>
  </g>
  <g>
    <path style="opacity: 1; paint-order: fill markers; stroke: rgb(0, 0, 0); stroke-width: 0px;" d="M 89.5,22.5 C 89.5,24.5 89.5,26.5 89.5,28.5C 91.4918,28.6715 93.1585,28.0049 94.5,26.5C 96.6174,28.8308 99.284,29.9974 102.5,30C 103.337,31.0113 103.67,32.1779 103.5,33.5C 101.566,35.2426 99.8998,37.2426 98.5,39.5C 97.1301,39.8565 96.1301,40.6898 95.5,42C 96.1868,43.1618 96.3534,44.3284 96,45.5C 95.2825,44.5494 94.4491,44.3828 93.5,45C 94.1667,46.3333 95.1667,47.3333 96.5,48C 95.1772,48.8159 94.5106,49.9826 94.5,51.5C 90.8345,52.4484 90.5011,51.4484 93.5,48.5C 92.3112,47.5713 90.9778,47.238 89.5,47.5C 90.0841,50.9828 89.2508,53.9828 87,56.5C 86.5774,55.0439 85.7441,54.5439 84.5,55C 85.0712,56.2051 85.7379,57.3717 86.5,58.5C 89.8787,57.5485 90.212,58.2151 87.5,60.5C 85.0202,61.242 82.6869,62.242 80.5,63.5C 77.5204,62.5265 76.8537,60.6931 78.5,58C 78.0496,56.7147 77.3829,55.548 76.5,54.5C 78.8333,53.5 80.5,51.8333 81.5,49.5C 81.1667,49.1667 80.8333,48.8333 80.5,48.5C 79.8333,49.1667 79.1667,49.8333 78.5,50.5C 78.3309,49.6034 77.9976,48.6034 77.5,47.5C 76.8165,47.8627 76.1499,48.1961 75.5,48.5C 73.0006,50.2745 70.3339,51.9411 67.5,53.5C 66.0656,52.4116 65.0656,51.0783 64.5,49.5C 64.2339,44.3281 65.4006,43.6615 68,47.5C 68.4955,45.5273 68.6621,43.5273 68.5,41.5C 69.5,41.5 70.5,41.5 71.5,41.5C 72.1667,39.5 72.8333,37.5 73.5,35.5C 66.1139,36.9402 65.6139,35.6069 72,31.5C 75.6849,32.4148 78.5182,34.4148 80.5,37.5C 79.9569,38.8638 79.7902,40.1971 80,41.5C 81.0113,40.6634 82.1779,40.33 83.5,40.5C 83.6427,38.7376 83.3094,37.0709 82.5,35.5C 83.1455,33.5679 84.4788,32.4012 86.5,32C 85.8095,30.9326 85.3095,29.7659 85,28.5C 84.1739,30.4054 83.0072,30.7388 81.5,29.5C 83.129,26.9948 84.4623,24.3281 85.5,21.5C 86.7362,22.2458 88.0695,22.5792 89.5,22.5 Z"/>
  </g>
  <g>
    <path style="opacity: 1; stroke: rgb(0, 0, 0); paint-order: fill;" d="M 103.5,33.5 C 105.28,34.7547 107.113,34.7547 109,33.5C 110.3,34.7073 111.8,35.3739 113.5,35.5C 114.138,37.46 114.138,39.2933 113.5,41C 111.144,41.1554 108.811,41.1554 106.5,41C 105.307,43.0267 103.64,44.5267 101.5,45.5C 100.41,44.6086 100.41,43.6086 101.5,42.5C 100.007,41.8589 99.0065,40.8589 98.5,39.5C 99.8998,37.2426 101.566,35.2426 103.5,33.5 Z"/>
  </g>
  <g>
    <path style="opacity: 1; stroke: rgb(0, 0, 0); paint-order: fill;" d="M 130.5,34.5 C 128.525,36.137 126.525,37.8036 124.5,39.5C 123.017,36.4468 123.85,34.1135 127,32.5C 128.077,33.4295 129.244,34.0962 130.5,34.5 Z"/>
  </g>
  <g>
    <path style="opacity: 0.482; stroke: rgb(0, 0, 0); paint-order: fill;" d="M 62.5,33.5 C 60.8333,37.1667 58.1667,39.8333 54.5,41.5C 56.8333,38.5 59.5,35.8333 62.5,33.5 Z"/>
  </g>
  <g>
    <path style="opacity: 0.994; stroke: rgb(0, 0, 0); paint-order: fill;" fill="#fcfcfc" d="M 131.5,34.5 C 135.676,36.8717 138.176,40.5384 139,45.5C 151.754,62.2543 166.588,77.0876 183.5,90C 184.252,90.6708 184.586,91.5041 184.5,92.5C 185.187,106.663 185.854,120.829 186.5,135C 185.503,147.481 184.836,159.981 184.5,172.5C 184.54,175.881 184.207,179.214 183.5,182.5C 177.484,182.407 171.484,182.074 165.5,181.5C 159.895,180.908 154.561,181.741 149.5,184C 145.167,184.333 140.833,184.667 136.5,185C 135.944,185.383 135.611,185.883 135.5,186.5C 115.132,187.892 94.7988,187.559 74.5,185.5C 74.9095,176.625 75.9095,167.958 77.5,159.5C 78.7472,153.37 79.4138,147.037 79.5,140.5C 79.5,122.167 79.5,103.833 79.5,85.5C 81.543,84.4206 82.8763,82.754 83.5,80.5C 83.5,79.8333 83.8333,79.5 84.5,79.5C 87.5,77.1667 90.1667,74.5 92.5,71.5C 92.5,70.8333 92.8333,70.5 93.5,70.5C 94.8333,69.8333 95.8333,68.8333 96.5,67.5C 100.048,64.105 103.381,60.4383 106.5,56.5C 106.833,55.5 107.5,54.8333 108.5,54.5C 109.5,53.8333 110.5,53.1667 111.5,52.5C 113.5,51.1667 115.167,49.5 116.5,47.5C 117.167,46.1667 118.167,45.1667 119.5,44.5C 121.142,43.1325 122.808,42.7992 124.5,43.5C 126.53,40.152 128.863,37.152 131.5,34.5 Z"/>
  </g>
  <g>
    <path style="opacity: 1; stroke: rgb(0, 0, 0); paint-order: fill;" d="M 130.5,34.5 C 130.833,34.5 131.167,34.5 131.5,34.5C 128.863,37.152 126.53,40.152 124.5,43.5C 122.808,42.7992 121.142,43.1325 119.5,44.5C 120.785,42.5484 122.451,40.8818 124.5,39.5C 126.525,37.8036 128.525,36.137 130.5,34.5 Z"/>
  </g>
  <g>
    <path style="opacity: 1; stroke: rgb(0, 0, 0); paint-order: fill;" d="M 47.5,53.5 C 49.9767,52.88 49.9767,51.88 47.5,50.5C 48.9431,47.9235 50.6098,45.5901 52.5,43.5C 57.0454,43.9184 61.3788,43.2517 65.5,41.5C 65.8333,41.8333 66.1667,42.1667 66.5,42.5C 65.675,43.3857 64.675,43.719 63.5,43.5C 63.6567,44.8734 63.49,46.2068 63,47.5C 61.1403,49.617 59.1403,51.617 57,53.5C 56.0497,52.9777 55.2164,52.311 54.5,51.5C 52.5,53.1667 50.5,54.8333 48.5,56.5C 47.6143,55.675 47.281,54.675 47.5,53.5 Z"/>
  </g>
  <g>
    <path style="opacity: 1; stroke: rgb(0, 0, 0); paint-order: fill;" d="M 118.5,25.5 C 118.833,25.5 119.167,25.5 119.5,25.5C 120.344,27.7593 122.011,28.7593 124.5,28.5C 125.167,28.5 125.5,28.8333 125.5,29.5C 128.25,30.0487 129.917,31.7154 130.5,34.5C 129.244,34.0962 128.077,33.4295 127,32.5C 123.85,34.1135 123.017,36.4468 124.5,39.5C 122.451,40.8818 120.785,42.5484 119.5,44.5C 118.167,45.1667 117.167,46.1667 116.5,47.5C 114.938,47.7329 113.605,48.3995 112.5,49.5C 111.475,47.7988 109.975,46.4655 108,45.5C 105.976,45.7995 105.476,46.6329 106.5,48C 104.865,48.5396 103.532,48.0396 102.5,46.5C 99.5727,47.8023 96.906,49.4689 94.5,51.5C 94.5106,49.9826 95.1772,48.8159 96.5,48C 95.1667,47.3333 94.1667,46.3333 93.5,45C 94.4491,44.3828 95.2825,44.5494 96,45.5C 96.3534,44.3284 96.1868,43.1618 95.5,42C 96.1301,40.6898 97.1301,39.8565 98.5,39.5C 99.0065,40.8589 100.007,41.8589 101.5,42.5C 100.41,43.6086 100.41,44.6086 101.5,45.5C 103.64,44.5267 105.307,43.0267 106.5,41C 108.811,41.1554 111.144,41.1554 113.5,41C 114.138,39.2933 114.138,37.46 113.5,35.5C 113.489,33.9826 112.823,32.8159 111.5,32C 112.308,31.6924 112.975,31.1924 113.5,30.5C 112.398,29.8243 111.398,29.1577 110.5,28.5C 112.048,28.1788 112.715,27.1788 112.5,25.5C 114.5,25.5 116.5,25.5 118.5,25.5 Z"/>
  </g>
  <g>
    <path style="opacity: 1; stroke: rgb(0, 0, 0); paint-order: fill;" d="M 111.5,51.5 C 111.5,51.8333 111.5,52.1667 111.5,52.5C 110.5,53.1667 109.5,53.8333 108.5,54.5C 108.34,52.8008 108.506,51.1341 109,49.5C 109.417,50.756 110.25,51.4226 111.5,51.5 Z"/>
  </g>
  <g>
    <path style="opacity: 1; stroke: rgb(0, 0, 0); paint-order: fill;" d="M 116.5,47.5 C 115.167,49.5 113.5,51.1667 111.5,52.5C 111.5,52.1667 111.5,51.8333 111.5,51.5C 111.833,50.8333 112.167,50.1667 112.5,49.5C 113.605,48.3995 114.938,47.7329 116.5,47.5 Z"/>
  </g>
  <g>
    <path style="opacity: 0.969; stroke: rgb(0, 0, 0); paint-order: fill;" d="M 52.5,43.5 C 50.6098,45.5901 48.9431,47.9235 47.5,50.5C 49.9767,51.88 49.9767,52.88 47.5,53.5C 46.8127,54.7856 45.646,56.4523 44,58.5C 43.51,59.7932 43.3433,61.1266 43.5,62.5C 43.1667,62.5 42.8333,62.5 42.5,62.5C 40.5,61.1667 38.5,59.8333 36.5,58.5C 39.4391,57.4665 42.1058,55.9665 44.5,54C 44.1667,53.5 43.8333,53 43.5,52.5C 41.2746,54.11 38.9413,55.4434 36.5,56.5C 40.6687,50.6579 46.0021,46.3246 52.5,43.5 Z"/>
  </g>
  <g>
    <path style="opacity: 0.986; stroke: rgb(0, 0, 0); paint-order: fill;" d="M 36.5,58.5 C 36.5,57.8333 36.5,57.1667 36.5,56.5C 38.9413,55.4434 41.2746,54.11 43.5,52.5C 43.8333,53 44.1667,53.5 44.5,54C 42.1058,55.9665 39.4391,57.4665 36.5,58.5 Z"/>
  </g>
  <g>
    <path style="opacity: 1; stroke: rgb(0, 0, 0); paint-order: fill;" d="M 112.5,49.5 C 112.167,50.1667 111.833,50.8333 111.5,51.5C 110.25,51.4226 109.417,50.756 109,49.5C 108.506,51.1341 108.34,52.8008 108.5,54.5C 107.5,54.8333 106.833,55.5 106.5,56.5C 104.589,57.075 102.922,58.075 101.5,59.5C 97.6611,58.95 97.6611,57.95 101.5,56.5C 102.631,54.9255 102.798,53.2588 102,51.5C 100.814,53.6766 98.9806,54.6766 96.5,54.5C 96.8174,58.1716 95.1507,59.8383 91.5,59.5C 91.6715,61.4918 91.0049,63.1585 89.5,64.5C 89.8333,65.1667 90.1667,65.8333 90.5,66.5C 89.3128,67.5195 88.3128,68.6861 87.5,70C 85.0953,70.2812 85.0953,69.6146 87.5,68C 85.1201,68.5218 82.7868,68.3552 80.5,67.5C 81.8664,65.6495 83.533,65.3162 85.5,66.5C 87.2134,65.1218 88.5467,63.4552 89.5,61.5C 89.0431,60.7025 88.3764,60.3691 87.5,60.5C 90.212,58.2151 89.8787,57.5485 86.5,58.5C 85.7379,57.3717 85.0712,56.2051 84.5,55C 85.7441,54.5439 86.5774,55.0439 87,56.5C 89.2508,53.9828 90.0841,50.9828 89.5,47.5C 90.9778,47.238 92.3112,47.5713 93.5,48.5C 90.5011,51.4484 90.8345,52.4484 94.5,51.5C 96.906,49.4689 99.5727,47.8023 102.5,46.5C 103.532,48.0396 104.865,48.5396 106.5,48C 105.476,46.6329 105.976,45.7995 108,45.5C 109.975,46.4655 111.475,47.7988 112.5,49.5 Z"/>
  </g>
  <g>
    <path style="opacity: 1; stroke: rgb(0, 0, 0); paint-order: fill;" d="M 80.5,63.5 C 80.2089,64.6491 79.3756,65.3158 78,65.5C 75.4731,65.3304 74.9731,64.3304 76.5,62.5C 75.0095,61.7564 73.5095,61.0897 72,60.5C 71.3828,61.4491 71.5494,62.2825 72.5,63C 71.2068,63.49 69.8734,63.6567 68.5,63.5C 68.8057,58.5591 70.9723,54.5591 75,51.5C 75.4828,50.552 75.6495,49.552 75.5,48.5C 76.1499,48.1961 76.8165,47.8627 77.5,47.5C 77.9976,48.6034 78.3309,49.6034 78.5,50.5C 79.1667,49.8333 79.8333,49.1667 80.5,48.5C 80.8333,48.8333 81.1667,49.1667 81.5,49.5C 80.5,51.8333 78.8333,53.5 76.5,54.5C 77.3829,55.548 78.0496,56.7147 78.5,58C 76.8537,60.6931 77.5204,62.5265 80.5,63.5 Z"/>
  </g>
  <g>
    <path style="opacity: 0.004; stroke: rgb(0, 0, 0); paint-order: fill;" d="M 179.5,56.5 C 180.833,57.1667 180.833,57.1667 179.5,56.5 Z"/>
  </g>
  <g>
    <path style="opacity: 0.004; stroke: rgb(0, 0, 0); paint-order: fill;" fill="#fefffe" d="M 29.5,58.5 C 30.8333,59.1667 30.8333,59.1667 29.5,58.5 Z"/>
  </g>
  <g>
    <path style="opacity: 0.004; stroke: rgb(0, 0, 0); paint-order: fill;" d="M 173.5,58.5 C 174.833,59.1667 174.833,59.1667 173.5,58.5 Z"/>
  </g>
  <g>
    <path style="opacity: 1; stroke: rgb(0, 0, 0); paint-order: fill;" d="M 75.5,48.5 C 75.6495,49.552 75.4828,50.552 75,51.5C 70.9723,54.5591 68.8057,58.5591 68.5,63.5C 69.8734,63.6567 71.2068,63.49 72.5,63C 71.5494,62.2825 71.3828,61.4491 72,60.5C 73.5095,61.0897 75.0095,61.7564 76.5,62.5C 74.9731,64.3304 75.4731,65.3304 78,65.5C 79.3756,65.3158 80.2089,64.6491 80.5,63.5C 82.6869,62.242 85.0202,61.242 87.5,60.5C 88.3764,60.3691 89.0431,60.7025 89.5,61.5C 88.5467,63.4552 87.2134,65.1218 85.5,66.5C 83.533,65.3162 81.8664,65.6495 80.5,67.5C 77.8985,69.5542 75.2319,69.2208 72.5,66.5C 70.6396,67.2599 68.973,68.2599 67.5,69.5C 66.5,69.5 65.5,69.5 64.5,69.5C 63.8333,66.5 63.1667,63.5 62.5,60.5C 61.0413,60.5674 59.7079,60.2341 58.5,59.5C 57.0813,58.5489 55.4147,58.2155 53.5,58.5C 53.1924,55.2871 54.359,54.2871 57,55.5C 58.8792,53.9872 61.0459,53.3205 63.5,53.5C 63.2322,51.901 63.5655,50.5676 64.5,49.5C 65.0656,51.0783 66.0656,52.4116 67.5,53.5C 70.3339,51.9411 73.0006,50.2745 75.5,48.5 Z"/>
  </g>
  <g>
    <path style="opacity: 1; stroke: rgb(0, 0, 0); paint-order: fill;" d="M 106.5,56.5 C 103.381,60.4383 100.048,64.105 96.5,67.5C 96.8925,65.7162 97.5592,64.0495 98.5,62.5C 99.8333,61.8333 100.833,60.8333 101.5,59.5C 102.922,58.075 104.589,57.075 106.5,56.5 Z"/>
  </g>
  <g>
    <path style="opacity: 1; stroke: rgb(0, 0, 0); paint-order: fill;" d="M 42.5,62.5 C 42.8333,62.5 43.1667,62.5 43.5,62.5C 45.8867,62.9121 47.8867,63.9121 49.5,65.5C 46.7282,65.2413 44.3949,64.2413 42.5,62.5 Z"/>
  </g>
  <g>
    <path style="opacity: 1; stroke: rgb(0, 0, 0); paint-order: fill;" d="M 58.5,59.5 C 59.7079,60.2341 61.0413,60.5674 62.5,60.5C 63.1667,63.5 63.8333,66.5 64.5,69.5C 65.5,69.5 66.5,69.5 67.5,69.5C 67.5299,70.4972 67.0299,71.1639 66,71.5C 63.8801,70.5411 61.7135,70.3744 59.5,71C 61.1193,71.2355 62.1193,72.0689 62.5,73.5C 61.5,73.5 60.5,73.5 59.5,73.5C 58.1979,71.1782 56.1979,69.8449 53.5,69.5C 53.5,69.1667 53.5,68.8333 53.5,68.5C 55.1992,68.6602 56.8659,68.4935 58.5,68C 59.5709,66.1745 58.9042,65.0079 56.5,64.5C 52.56,66.2361 50.8933,64.9028 51.5,60.5C 53.8056,60.0074 56.139,59.6741 58.5,59.5 Z"/>
  </g>
  <g>
    <path style="opacity: 1; stroke: rgb(0, 0, 0); paint-order: fill;" d="M 101.5,59.5 C 100.833,60.8333 99.8333,61.8333 98.5,62.5C 92.1321,62.2578 89.7988,65.2578 91.5,71.5C 89.8333,72.8333 88.1667,74.1667 86.5,75.5C 84.8532,72.5265 82.8532,69.8599 80.5,67.5C 82.7868,68.3552 85.1201,68.5218 87.5,68C 85.0953,69.6146 85.0953,70.2812 87.5,70C 88.3128,68.6861 89.3128,67.5195 90.5,66.5C 90.1667,65.8333 89.8333,65.1667 89.5,64.5C 91.0049,63.1585 91.6715,61.4918 91.5,59.5C 95.1507,59.8383 96.8174,58.1716 96.5,54.5C 98.9806,54.6766 100.814,53.6766 102,51.5C 102.798,53.2588 102.631,54.9255 101.5,56.5C 97.6611,57.95 97.6611,58.95 101.5,59.5 Z"/>
  </g>
  <g>
    <path style="opacity: 1; stroke: rgb(0, 0, 0); paint-order: fill;" fill="#fbfbfb" d="M 42.5,62.5 C 44.3949,64.2413 46.7282,65.2413 49.5,65.5C 49.8333,66.1667 50.1667,66.8333 50.5,67.5C 50.9731,68.9063 51.9731,69.573 53.5,69.5C 56.1979,69.8449 58.1979,71.1782 59.5,73.5C 60.733,75.7964 62.733,77.1298 65.5,77.5C 65.5,77.8333 65.5,78.1667 65.5,78.5C 67.1815,80.0075 69.1815,81.0075 71.5,81.5C 71.8333,81.5 72.1667,81.5 72.5,81.5C 73.5,83.1667 74.8333,84.5 76.5,85.5C 76.9514,111.541 76.2847,137.541 74.5,163.5C 73.0109,167.236 72.3442,171.236 72.5,175.5C 71.7347,178.096 71.4013,180.763 71.5,183.5C 64.8303,179.162 58.1636,174.829 51.5,170.5C 44.8687,165.204 38.5354,159.537 32.5,153.5C 32.5378,144.154 32.8711,134.82 33.5,125.5C 35.4461,120.604 36.1128,115.271 35.5,109.5C 36.3498,102.201 36.6831,94.8681 36.5,87.5C 37.1904,81.1903 37.5237,74.857 37.5,68.5C 37.5,66.1667 37.5,63.8333 37.5,61.5C 39.2915,61.366 40.9582,61.6993 42.5,62.5 Z"/>
  </g>
  <g>
    <path style="opacity: 1; stroke: rgb(0, 0, 0); paint-order: fill;" d="M 98.5,62.5 C 97.5592,64.0495 96.8925,65.7162 96.5,67.5C 94.5,67.5 93.5,68.5 93.5,70.5C 92.8333,70.5 92.5,70.8333 92.5,71.5C 92.1667,71.5 91.8333,71.5 91.5,71.5C 89.7988,65.2578 92.1321,62.2578 98.5,62.5 Z"/>
  </g>
  <g>
    <path style="opacity: 0.004; stroke: rgb(0, 0, 0); paint-order: fill;" d="M 173.5,65.5 C 174.833,66.1667 174.833,66.1667 173.5,65.5 Z"/>
  </g>
  <g>
    <path style="opacity: 1; stroke: rgb(0, 0, 0); paint-order: fill;" d="M 128.5,64.5 C 131.32,64.2475 133.986,64.7475 136.5,66C 136.272,66.3988 135.938,66.5654 135.5,66.5C 133.143,66.3367 130.81,66.5034 128.5,67C 127.748,67.6708 127.414,68.5041 127.5,69.5C 126.374,72.4651 125.374,75.4651 124.5,78.5C 124.768,76.901 124.434,75.5676 123.5,74.5C 123.056,70.0542 124.723,66.7209 128.5,64.5 Z"/>
  </g>
  <g>
    <path style="opacity: 1; stroke: rgb(0, 0, 0); paint-order: fill;" d="M 128.5,64.5 C 133.351,62.3924 137.017,63.7258 139.5,68.5C 138.314,69.7054 138.314,71.0387 139.5,72.5C 137.952,72.8212 137.285,73.8212 137.5,75.5C 136.837,73.9581 136.17,72.2914 135.5,70.5C 134.264,69.7542 132.93,69.4208 131.5,69.5C 133.219,68.9779 134.552,67.9779 135.5,66.5C 135.938,66.5654 136.272,66.3988 136.5,66C 133.986,64.7475 131.32,64.2475 128.5,64.5 Z"/>
  </g>
  <g>
    <path style="opacity: 0.51; stroke: rgb(0, 0, 0); paint-order: fill;" d="M 35.5,56.5 C 35.8333,56.5 36.1667,56.5 36.5,56.5C 36.5,57.1667 36.5,57.8333 36.5,58.5C 38.5,59.8333 40.5,61.1667 42.5,62.5C 40.9582,61.6993 39.2915,61.366 37.5,61.5C 37.5,63.8333 37.5,66.1667 37.5,68.5C 36.6829,70.9686 36.1829,73.6353 36,76.5C 35.5004,69.8417 35.3337,63.175 35.5,56.5 Z"/>
  </g>
  <g>
    <path style="opacity: 1; stroke: rgb(0, 0, 0); paint-order: fill;" d="M 50.5,67.5 C 51.609,67.5569 52.609,67.8902 53.5,68.5C 53.5,68.8333 53.5,69.1667 53.5,69.5C 51.9731,69.573 50.9731,68.9063 50.5,67.5 Z"/>
  </g>
  <g>
    <path style="opacity: 1; stroke: rgb(0, 0, 0); paint-order: fill;" d="M 96.5,67.5 C 95.8333,68.8333 94.8333,69.8333 93.5,70.5C 93.5,68.5 94.5,67.5 96.5,67.5 Z"/>
  </g>
  <g>
    <path style="opacity: 1; stroke: rgb(0, 0, 0); paint-order: fill;" d="M 135.5,66.5 C 134.552,67.9779 133.219,68.9779 131.5,69.5C 130.206,70.2899 129.039,71.2899 128,72.5C 127.517,71.552 127.351,70.552 127.5,69.5C 127.414,68.5041 127.748,67.6708 128.5,67C 130.81,66.5034 133.143,66.3367 135.5,66.5 Z"/>
  </g>
  <g>
    <path style="opacity: 0.004; stroke: rgb(0, 0, 0); paint-order: fill;" fill="#fefffe" d="M 23.5,71.5 C 24.8333,72.1667 24.8333,72.1667 23.5,71.5 Z"/>
  </g>
  <g>
    <path style="opacity: 1; stroke: rgb(0, 0, 0); paint-order: fill;" d="M 80.5,67.5 C 82.8532,69.8599 84.8532,72.5265 86.5,75.5C 85.3995,76.6049 84.7329,77.9382 84.5,79.5C 83.8333,79.5 83.5,79.8333 83.5,80.5C 82.2223,80.7822 81.2223,81.4489 80.5,82.5C 79.5655,81.4324 79.2322,80.099 79.5,78.5C 77.9397,78.4809 76.4397,78.1476 75,77.5C 73.2874,78.1374 73.1207,79.1374 74.5,80.5C 74.0431,81.2975 73.3764,81.6309 72.5,81.5C 72.1667,81.5 71.8333,81.5 71.5,81.5C 70.3933,79.0311 68.3933,78.0311 65.5,78.5C 65.5,78.1667 65.5,77.8333 65.5,77.5C 64.5,76.1667 63.5,74.8333 62.5,73.5C 62.1193,72.0689 61.1193,71.2355 59.5,71C 61.7135,70.3744 63.8801,70.5411 66,71.5C 67.0299,71.1639 67.5299,70.4972 67.5,69.5C 68.973,68.2599 70.6396,67.2599 72.5,66.5C 75.2319,69.2208 77.8985,69.5542 80.5,67.5 Z"/>
  </g>
  <g>
    <path style="opacity: 1; stroke: rgb(0, 0, 0); paint-order: fill;" d="M 59.5,73.5 C 60.5,73.5 61.5,73.5 62.5,73.5C 63.5,74.8333 64.5,76.1667 65.5,77.5C 62.733,77.1298 60.733,75.7964 59.5,73.5 Z"/>
  </g>
  <g>
    <path style="opacity: 1; stroke: rgb(0, 0, 0); paint-order: fill;" d="M 91.5,71.5 C 91.8333,71.5 92.1667,71.5 92.5,71.5C 90.1667,74.5 87.5,77.1667 84.5,79.5C 84.7329,77.9382 85.3995,76.6049 86.5,75.5C 88.1667,74.1667 89.8333,72.8333 91.5,71.5 Z"/>
  </g>
  <g>
    <path style="opacity: 1; stroke: rgb(0, 0, 0); paint-order: fill;" d="M 139.5,72.5 C 140.903,77.3867 141.569,82.3867 141.5,87.5C 140.5,87.5 139.5,87.5 138.5,87.5C 138.167,85.5 137.833,83.5 137.5,81.5C 137.5,79.5 137.5,77.5 137.5,75.5C 137.285,73.8212 137.952,72.8212 139.5,72.5 Z"/>
  </g>
  <g>
    <path style="opacity: 1; stroke: rgb(0, 0, 0); paint-order: fill;" fill="#aeadae" d="M 139.5,68.5 C 140.829,72.0913 142.163,75.758 143.5,79.5C 143.5,82.8333 143.5,86.1667 143.5,89.5C 141.167,89.5 138.833,89.5 136.5,89.5C 136.5,89.1667 136.5,88.8333 136.5,88.5C 137.492,88.6716 138.158,88.3382 138.5,87.5C 139.5,87.5 140.5,87.5 141.5,87.5C 141.569,82.3867 140.903,77.3867 139.5,72.5C 138.314,71.0387 138.314,69.7054 139.5,68.5 Z"/>
  </g>
  <g>
    <path style="opacity: 0.522; stroke: rgb(0, 0, 0); paint-order: fill;" d="M 34.5,56.5 C 34.8333,56.5 35.1667,56.5 35.5,56.5C 35.3337,63.175 35.5004,69.8417 36,76.5C 36.1829,73.6353 36.6829,70.9686 37.5,68.5C 37.5237,74.857 37.1904,81.1903 36.5,87.5C 34.5267,78.2245 33.86,68.5578 34.5,58.5C 34.5,57.8333 34.5,57.1667 34.5,56.5 Z"/>
  </g>
  <g>
    <path style="opacity: 1; stroke: rgb(0, 0, 0); paint-order: fill;" d="M 65.5,78.5 C 68.3933,78.0311 70.3933,79.0311 71.5,81.5C 69.1815,81.0075 67.1815,80.0075 65.5,78.5 Z"/>
  </g>
  <g>
    <path style="opacity: 1; stroke: rgb(0, 0, 0); paint-order: fill;" d="M 123.5,74.5 C 124.434,75.5676 124.768,76.901 124.5,78.5C 123.699,80.0418 123.366,81.7085 123.5,83.5C 123.167,83.5 122.833,83.5 122.5,83.5C 121.903,83.2648 121.57,82.7648 121.5,82C 122.016,79.3309 122.683,76.8309 123.5,74.5 Z"/>
  </g>
  <g>
    <path style="opacity: 1; stroke: rgb(0, 0, 0); paint-order: fill;" d="M 80.5,82.5 C 80.1667,83.1667 79.8333,83.8333 79.5,84.5C 78.609,85.1098 77.609,85.4431 76.5,85.5C 74.8333,84.5 73.5,83.1667 72.5,81.5C 73.3764,81.6309 74.0431,81.2975 74.5,80.5C 73.1207,79.1374 73.2874,78.1374 75,77.5C 76.4397,78.1476 77.9397,78.4809 79.5,78.5C 79.2322,80.099 79.5655,81.4324 80.5,82.5 Z"/>
  </g>
  <g>
    <path style="opacity: 1; stroke: rgb(0, 0, 0); paint-order: fill;" d="M 127.5,69.5 C 127.351,70.552 127.517,71.552 128,72.5C 129.039,71.2899 130.206,70.2899 131.5,69.5C 129.386,72.9389 127.719,76.6055 126.5,80.5C 125.839,81.7175 125.172,83.0508 124.5,84.5C 123.893,84.3764 123.56,84.0431 123.5,83.5C 123.366,81.7085 123.699,80.0418 124.5,78.5C 125.374,75.4651 126.374,72.4651 127.5,69.5 Z"/>
  </g>
  <g>
    <path style="opacity: 1; stroke: rgb(0, 0, 0); paint-order: fill;" d="M 131.5,69.5 C 132.93,69.4208 134.264,69.7542 135.5,70.5C 136.17,72.2914 136.837,73.9581 137.5,75.5C 137.5,77.5 137.5,79.5 137.5,81.5C 135.917,79.1368 134.084,79.1368 132,81.5C 131.517,82.448 131.351,83.448 131.5,84.5C 129.833,84.5 128.167,84.5 126.5,84.5C 126.5,83.1667 126.5,81.8333 126.5,80.5C 127.719,76.6055 129.386,72.9389 131.5,69.5 Z"/>
  </g>
  <g>
    <path style="opacity: 1; stroke: rgb(0, 0, 0); paint-order: fill;" fill="#d2d2d3" d="M 143.5,79.5 C 144.482,82.9619 144.815,86.6286 144.5,90.5C 141.615,90.8064 138.948,90.4731 136.5,89.5C 138.833,89.5 141.167,89.5 143.5,89.5C 143.5,86.1667 143.5,82.8333 143.5,79.5 Z"/>
  </g>
  <g>
    <path style="opacity: 1; stroke: rgb(0, 0, 0); paint-order: fill;" d="M 83.5,80.5 C 82.8763,82.754 81.543,84.4206 79.5,85.5C 79.5,85.1667 79.5,84.8333 79.5,84.5C 79.8333,83.8333 80.1667,83.1667 80.5,82.5C 81.2223,81.4489 82.2223,80.7822 83.5,80.5 Z"/>
  </g>
  <g>
    <path style="opacity: 1; stroke: rgb(0, 0, 0); paint-order: fill;" d="M 126.5,80.5 C 126.5,81.8333 126.5,83.1667 126.5,84.5C 125.89,85.391 125.557,86.391 125.5,87.5C 124.833,87.5 124.167,87.5 123.5,87.5C 122.566,86.4324 122.232,85.099 122.5,83.5C 122.833,83.5 123.167,83.5 123.5,83.5C 123.56,84.0431 123.893,84.3764 124.5,84.5C 125.172,83.0508 125.839,81.7175 126.5,80.5 Z"/>
  </g>
  <g>
    <path style="opacity: 1; stroke: rgb(0, 0, 0); paint-order: fill;" d="M 137.5,81.5 C 137.833,83.5 138.167,85.5 138.5,87.5C 138.158,88.3382 137.492,88.6716 136.5,88.5C 132.881,87.7564 129.215,87.423 125.5,87.5C 125.557,86.391 125.89,85.391 126.5,84.5C 128.167,84.5 129.833,84.5 131.5,84.5C 131.351,83.448 131.517,82.448 132,81.5C 134.084,79.1368 135.917,79.1368 137.5,81.5 Z"/>
  </g>
  <g>
    <path style="opacity: 1; stroke: rgb(0, 0, 0); paint-order: fill;" fill="#e2dde1" d="M 123.5,87.5 C 124.167,87.5 124.833,87.5 125.5,87.5C 129.215,87.423 132.881,87.7564 136.5,88.5C 136.5,88.8333 136.5,89.1667 136.5,89.5C 132.486,89.6655 128.486,89.4988 124.5,89C 123.944,88.6174 123.611,88.1174 123.5,87.5 Z"/>
  </g>
  <g>
    <path style="opacity: 0.038; stroke: rgb(0, 0, 0); paint-order: fill;" d="M 188.5,90.5 C 190.117,94.5396 190.95,98.8729 191,103.5C 191.827,116.673 191.66,129.673 190.5,142.5C 189.794,130.754 189.794,119.254 190.5,108C 190.613,106.301 189.947,105.134 188.5,104.5C 188.5,104.167 188.5,103.833 188.5,103.5C 188.5,99.1667 188.5,94.8333 188.5,90.5 Z"/>
  </g>
  <g>
    <path style="opacity: 0.004; stroke: rgb(0, 0, 0); paint-order: fill;" fill="#fefffe" d="M 197.5,103.5 C 198.833,104.167 198.833,104.167 197.5,103.5 Z"/>
  </g>
  <g>
    <path style="opacity: 0.098; stroke: rgb(0, 0, 0); paint-order: fill;" fill="#f2f1f2" d="M 33.5,83.5 C 32.6736,104.369 31.3403,125.202 29.5,146C 29.5018,149.352 29.8351,152.518 30.5,155.5C 34.8815,159.215 38.8815,163.215 42.5,167.5C 37.8931,164.069 33.3931,160.403 29,156.5C 28.0419,154.801 27.5419,152.967 27.5,151C 28.9666,128.43 30.9666,105.93 33.5,83.5 Z"/>
  </g>
  <g>
    <path style="opacity: 0.945; stroke: rgb(0, 0, 0); paint-order: fill;" fill="#d7d5d6" d="M 184.5,92.5 C 185.324,96.3123 185.824,100.312 186,104.5C 187.087,106.932 187.587,106.598 187.5,103.5C 187.833,103.5 188.167,103.5 188.5,103.5C 188.5,103.833 188.5,104.167 188.5,104.5C 188.913,127.542 188.246,150.542 186.5,173.5C 185.833,173.167 185.167,172.833 184.5,172.5C 184.836,159.981 185.503,147.481 186.5,135C 185.854,120.829 185.187,106.663 184.5,92.5 Z"/>
  </g>
  <g>
    <path style="opacity: 0.981; stroke: rgb(0, 0, 0); paint-order: fill;" fill="#e9e7e8" d="M 35.5,109.5 C 36.1128,115.271 35.4461,120.604 33.5,125.5C 33.3342,120.821 33.5008,116.155 34,111.5C 34.2784,110.584 34.7784,109.918 35.5,109.5 Z"/>
  </g>
  <g>
    <path style="opacity: 0.004; stroke: rgb(0, 0, 0); paint-order: fill;" fill="#fefffe" d="M 194.5,123.5 C 195.833,124.167 195.833,124.167 194.5,123.5 Z"/>
  </g>
  <g>
    <path style="opacity: 0.987; stroke: rgb(0, 0, 0); paint-order: fill;" fill="#b6b5b6" d="M 79.5,84.5 C 79.5,84.8333 79.5,85.1667 79.5,85.5C 79.5,103.833 79.5,122.167 79.5,140.5C 78.0035,146.605 77.3369,152.938 77.5,159.5C 75.9095,167.958 74.9095,176.625 74.5,185.5C 74.6107,186.117 74.944,186.617 75.5,187C 74.2068,187.49 72.8734,187.657 71.5,187.5C 70.8333,187.5 70.5,187.167 70.5,186.5C 70.5569,185.391 70.8902,184.391 71.5,183.5C 71.4013,180.763 71.7347,178.096 72.5,175.5C 73.7947,171.733 74.4613,167.733 74.5,163.5C 76.2847,137.541 76.9514,111.541 76.5,85.5C 77.609,85.4431 78.609,85.1098 79.5,84.5 Z"/>
  </g>
  <g>
    <path style="opacity:0.004" fill="#fefffe" d="M 5.5,139.5 C 6.83333,140.167 6.83333,140.167 5.5,139.5 Z"/>
  </g>
  <g>
    <path style="opacity: 0.62; paint-order: fill; stroke: rgb(1, 0, 0);" fill="#cac8c9" d="M 34.5,58.5 C 33.86,68.5578 34.5267,78.2245 36.5,87.5C 36.6831,94.8681 36.3498,102.201 35.5,109.5C 34.7784,109.918 34.2784,110.584 34,111.5C 33.5008,116.155 33.3342,120.821 33.5,125.5C 32.8711,134.82 32.5378,144.154 32.5,153.5C 31.1667,153.5 30.5,154.167 30.5,155.5C 29.8351,152.518 29.5018,149.352 29.5,146C 31.3403,125.202 32.6736,104.369 33.5,83.5C 33.1739,74.9832 33.5073,66.6499 34.5,58.5 Z"/>
  </g>
  <g>
    <path style="opacity: 0.004; stroke: rgb(0, 0, 0); paint-order: fill;" fill="#fefffe" d="M 194.5,141.5 C 195.833,142.167 195.833,142.167 194.5,141.5 Z"/>
  </g>
  <g>
    <path style="opacity: 1; stroke: rgb(0, 0, 0); paint-order: fill;" fill="#d3d3d2" d="M 79.5,140.5 C 79.4138,147.037 78.7472,153.37 77.5,159.5C 77.3369,152.938 78.0035,146.605 79.5,140.5 Z"/>
  </g>
  <g>
    <path style="opacity: 0.504; stroke: rgb(0, 0, 0); paint-order: fill;" fill="#b0adb0" d="M 32.5,153.5 C 38.5354,159.537 44.8687,165.204 51.5,170.5C 51.5,171.167 51.1667,171.5 50.5,171.5C 47.9261,169.976 45.2594,168.642 42.5,167.5C 38.8815,163.215 34.8815,159.215 30.5,155.5C 30.5,154.167 31.1667,153.5 32.5,153.5 Z"/>
  </g>
  <g>
    <path style="opacity: 0.004; stroke: rgb(0, 0, 0); paint-order: fill;" fill="#fefffe" d="M 191.5,168.5 C 192.833,169.167 192.833,169.167 191.5,168.5 Z"/>
  </g>
  <g>
    <path style="opacity: 1; stroke: rgb(0, 0, 0); paint-order: fill;" fill="#d1cecf" d="M 74.5,163.5 C 74.4613,167.733 73.7947,171.733 72.5,175.5C 72.3442,171.236 73.0109,167.236 74.5,163.5 Z"/>
  </g>
  <g>
    <path style="opacity: 0.016; stroke: rgb(0, 0, 0); paint-order: fill;" fill="#f3f3f4" d="M 42.5,167.5 C 45.2594,168.642 47.9261,169.976 50.5,171.5C 55.0824,174.611 59.4157,177.945 63.5,181.5C 55.9508,177.61 48.9508,172.944 42.5,167.5 Z"/>
  </g>
  <g>
    <path style="opacity: 0.329; stroke: rgb(0, 0, 0); paint-order: fill;" fill="#c5c2c4" d="M 51.5,170.5 C 58.1636,174.829 64.8303,179.162 71.5,183.5C 70.8902,184.391 70.5569,185.391 70.5,186.5C 69.078,185.075 67.4113,184.075 65.5,183.5C 64.5,183.167 63.8333,182.5 63.5,181.5C 59.4157,177.945 55.0824,174.611 50.5,171.5C 51.1667,171.5 51.5,171.167 51.5,170.5 Z"/>
  </g>
  <g>
    <path style="opacity: 0.004; stroke: rgb(0, 0, 0); paint-order: fill;" fill="#fefffe" d="M 197.5,179.5 C 198.833,180.167 198.833,180.167 197.5,179.5 Z"/>
  </g>
  <g>
    <path style="opacity: 0.818; stroke: rgb(0, 0, 0); paint-order: fill;" fill="#c0bebf" d="M 184.5,172.5 C 185.167,172.833 185.833,173.167 186.5,173.5C 186.5,178.167 186.5,182.833 186.5,187.5C 179.939,185.679 173.272,184.346 166.5,183.5C 166.167,182.833 165.833,182.167 165.5,181.5C 171.484,182.074 177.484,182.407 183.5,182.5C 184.207,179.214 184.54,175.881 184.5,172.5 Z"/>
  </g>
  <g>
    <path style="opacity: 0.043; stroke: rgb(0, 0, 0); paint-order: fill;" fill="#f0f0f0" d="M 65.5,183.5 C 67.4113,184.075 69.078,185.075 70.5,186.5C 70.5,187.167 70.8333,187.5 71.5,187.5C 71.5,187.833 71.5,188.167 71.5,188.5C 68.9108,187.581 66.9108,185.914 65.5,183.5 Z"/>
  </g>
  <g>
    <path style="opacity: 0.29; stroke: rgb(0, 0, 0); paint-order: fill;" fill="#d6d5d5" d="M 165.5,181.5 C 165.833,182.167 166.167,182.833 166.5,183.5C 163.813,183.336 161.146,183.503 158.5,184C 156.347,184.099 154.681,184.933 153.5,186.5C 149.833,186.5 146.167,186.5 142.5,186.5C 140.312,185.377 137.979,185.377 135.5,186.5C 135.611,185.883 135.944,185.383 136.5,185C 140.833,184.667 145.167,184.333 149.5,184C 154.561,181.741 159.895,180.908 165.5,181.5 Z"/>
  </g>
  <g>
    <path style="opacity: 0.019; stroke: rgb(0, 0, 0); paint-order: fill;" fill="#fcfbfc" d="M 71.5,188.5 C 79.6599,188.995 87.6599,189.662 95.5,190.5C 88.825,190.666 82.1583,190.5 75.5,190C 73.9419,189.79 72.6085,189.29 71.5,188.5 Z"/>
  </g>
  <g>
    <path style="opacity: 0.004; stroke: rgb(0, 0, 0); paint-order: fill;" fill="#fefffe" d="M 80.5,194.5 C 81.8333,195.167 81.8333,195.167 80.5,194.5 Z"/>
  </g>
  <g>
    <path style="opacity: 0.004; stroke: rgb(0, 0, 0); paint-order: fill;" fill="#fefffe" d="M 83.5,194.5 C 84.8333,195.167 84.8333,195.167 83.5,194.5 Z"/>
  </g>
  <g>
    <path style="opacity: 0.004; stroke: rgb(0, 0, 0); paint-order: fill;" fill="#fefffe" d="M 95.5,194.5 C 96.8333,195.167 96.8333,195.167 95.5,194.5 Z"/>
  </g>
  <g>
    <path style="opacity:0.004" fill="#fefffe" d="M 158.5,195.5 C 159.525,195.897 159.692,196.563 159,197.5C 158.536,196.906 158.369,196.239 158.5,195.5 Z"/>
  </g>
  <g>
    <path style="opacity:0.004" fill="#fefffe" d="M 86.5,196.5 C 87.8333,197.167 87.8333,197.167 86.5,196.5 Z"/>
  </g>
  <g>
    <path style="opacity:0.004" fill="#fefffe" d="M 191.5,204.5 C 192.833,205.167 192.833,205.167 191.5,204.5 Z"/>
  </g>
  <g>
    <path style="opacity:0.004" fill="#fefffe" d="M 44.5,206.5 C 45.8333,207.167 45.8333,207.167 44.5,206.5 Z"/>
  </g>
  <g>
    <path style="opacity:0.004" fill="#fefffe" d="M 11.5,212.5 C 12.8333,213.167 12.8333,213.167 11.5,212.5 Z"/>
  </g>
  <g>
    <path style="opacity:0.004" fill="#fefffe" d="M 53.5,212.5 C 54.8333,213.167 54.8333,213.167 53.5,212.5 Z"/>
  </g>
  <g>
    <path style="opacity:0.004" fill="#fefffe" d="M 65.5,213.5 C 66.8333,214.167 66.8333,214.167 65.5,213.5 Z"/>
  </g>
  <g>
    <path style="opacity:0.004" fill="#fefffe" d="M 29.5,215.5 C 30.8333,216.167 30.8333,216.167 29.5,215.5 Z"/>
  </g>
  <g>
    <path style="opacity:0.004" fill="#fefffe" d="M 38.5,216.5 C 39.8333,217.167 39.8333,217.167 38.5,216.5 Z"/>
  </g>
</svg>