<?xml version="1.0" standalone="no"?>
<!DOCTYPE svg PUBLIC "-//W3C//DTD SVG 20010904//EN"
 "http://www.w3.org/TR/2001/REC-SVG-20010904/DTD/svg10.dtd">
<svg version="1.0" xmlns="http://www.w3.org/2000/svg"
 width="248.000000pt" height="300.000000pt" viewBox="0 0 248.000000 300.000000"
 preserveAspectRatio="xMidYMid meet">
<metadata>
Created by potrace 1.10, written by Peter Selinger 2001-2011
</metadata>
<g transform="translate(0.000000,300.000000) scale(0.100000,-0.100000)"
fill="#000000" stroke="none">
<path d="M278 2848 c-65 -23 -107 -184 -133 -518 -10 -128 -25 -118 -25 17 0
70 -4 124 -10 128 -6 4 -10 -26 -10 -82 -1 -266 -8 -395 -29 -510 -16 -90 -21
-149 -18 -230 2 -59 0 -130 -5 -158 -4 -27 -10 -93 -13 -145 -3 -52 -10 -133
-16 -180 -6 -47 -11 -216 -11 -376 0 -246 3 -296 16 -320 53 -98 192 -166 368
-179 88 -7 115 -18 77 -30 -19 -6 -72 -37 -108 -62 -2 -2 -2 -6 1 -9 7 -7 72
26 117 60 22 16 48 26 69 26 32 0 34 -1 21 -17 -25 -30 -42 -70 -35 -82 18
-28 135 -2 246 55 45 22 81 34 109 34 46 0 50 -7 21 -37 -30 -33 -80 -118 -80
-138 0 -31 67 -12 226 66 82 40 153 75 159 78 5 2 -28 -36 -74 -85 -46 -49
-88 -99 -94 -111 -6 -13 -14 -23 -19 -23 -4 0 -8 -4 -8 -10 0 -24 30 -6 68 42
23 28 66 77 96 109 29 31 61 68 70 81 16 22 21 23 166 24 83 0 150 -2 150 -6
0 -4 -12 -13 -27 -21 -15 -8 -74 -49 -130 -91 -56 -43 -105 -78 -109 -78 -15
0 51 62 109 103 72 50 63 76 -10 28 -26 -17 -70 -42 -98 -55 -48 -23 -167 -97
-210 -130 -20 -15 -20 -15 2 -16 12 0 58 25 104 56 45 30 90 59 100 65 35 18
10 -14 -46 -61 -59 -49 -66 -60 -36 -60 25 0 275 168 354 237 34 31 57 41 57
27 0 -3 -44 -49 -98 -103 -53 -53 -108 -111 -120 -129 -23 -32 -23 -32 -3 -32
12 0 21 4 21 9 0 5 55 65 122 134 l123 126 70 -4 c39 -2 89 0 113 5 78 14 44
-12 -158 -123 -30 -16 -62 -35 -70 -42 -8 -7 -52 -32 -97 -55 -46 -22 -83 -44
-83 -47 0 -3 15 -3 32 1 39 8 134 56 248 126 47 29 86 47 88 41 5 -14 47 8 85
44 15 14 27 24 27 21 0 -3 29 11 64 29 35 19 67 35 71 35 3 0 3 -15 -1 -32 -6
-29 -5 -31 10 -19 9 7 16 22 16 32 0 23 21 34 80 43 142 22 196 132 215 436 4
58 11 137 16 175 11 87 31 1175 27 1499 -3 200 -5 240 -18 246 -8 5 -46 13
-85 19 -38 7 -95 16 -125 21 -30 5 -89 14 -130 20 -41 7 -111 20 -154 31 -80
19 -340 62 -451 74 -99 11 -1157 13 -1187 3z m1277 -42 c207 -33 291 -48 340
-60 47 -13 92 -21 335 -61 144 -23 144 -23 159 -24 11 -1 12 -125 7 -773 -4
-424 -8 -774 -10 -777 -2 -3 -7 -51 -10 -106 -4 -55 -9 -111 -11 -125 -3 -14
-9 -90 -14 -170 -14 -201 -41 -280 -109 -325 -36 -24 -109 -47 -146 -46 -11 0
-27 -4 -36 -9 -10 -5 -51 -16 -91 -24 -84 -16 -322 -19 -313 -4 4 5 15 7 27 4
19 -5 72 24 89 48 16 24 -13 29 -42 8 -16 -12 -33 -22 -37 -22 -5 0 -25 -11
-44 -25 l-37 -24 -316 0 c-174 0 -316 3 -316 6 0 4 8 15 17 25 13 14 14 21 5
30 -9 9 -29 4 -84 -19 -69 -30 -79 -31 -188 -29 l-115 3 3 27 c4 33 -8 33 -58
0 -39 -26 -39 -26 -141 -15 -204 22 -337 85 -375 178 -20 47 -19 518 1 678 18
148 35 362 39 515 2 63 11 153 20 200 9 47 23 137 31 200 8 63 22 165 31 225
8 61 24 171 34 245 18 133 44 215 78 254 16 18 40 18 597 13 455 -5 602 -9
680 -21z m-591 -2499 c-8 -21 -32 -29 -52 -18 -14 8 -11 12 18 25 39 16 43 15
34 -7z m-189 -43 c-11 -8 -53 -25 -95 -38 -41 -14 -83 -27 -92 -31 -23 -9 -24
15 -3 55 l16 30 97 0 c88 -1 95 -2 77 -16z m431 -6 c4 -5 2 -8 -5 -8 -6 0 -40
-13 -74 -29 -160 -75 -249 -112 -258 -109 -9 3 6 27 76 123 l22 30 116 0 c63
0 119 -3 123 -7z"/>
<path d="M1903 2569 c-7 -7 -13 -35 -13 -61 0 -43 5 -54 40 -92 46 -50 108
-81 143 -72 51 12 61 157 14 204 -21 21 -37 26 -99 29 -52 4 -77 1 -85 -8z
m119 -19 c48 -14 68 -43 68 -98 0 -49 -14 -82 -35 -82 -19 0 -86 38 -102 59
-48 60 -53 116 -10 124 38 7 41 7 79 -3z"/>
<path d="M885 2286 c-95 -22 -243 -118 -290 -187 -27 -39 -65 -150 -91 -264
l-7 -30 -7 25 c-21 76 -24 -161 -4 -363 4 -43 9 -57 19 -53 9 3 22 -17 40 -61
44 -110 82 -160 190 -247 80 -64 139 -93 216 -106 93 -15 279 -13 326 4 38 13
163 89 235 143 53 39 182 220 224 312 26 56 41 173 43 325 2 135 1 147 -23
195 -38 79 -132 196 -189 235 -92 63 -179 80 -422 82 -131 1 -229 -3 -260 -10z
m524 -35 c110 -25 174 -70 258 -181 75 -99 83 -126 83 -285 0 -241 -24 -319
-159 -505 -63 -88 -72 -96 -206 -183 -110 -71 -131 -77 -276 -77 -146 0 -212
14 -295 64 -59 35 -164 125 -164 140 0 4 -11 22 -24 39 -51 67 -98 188 -105
267 -12 129 -4 241 24 351 45 180 74 228 175 293 96 62 126 77 179 86 68 12
447 5 510 -9z"/>
<path d="M984 2229 c-64 -8 -112 -31 -153 -73 -76 -79 -207 -373 -175 -394 6
-4 12 -29 13 -57 7 -110 9 -132 22 -180 7 -27 36 -98 66 -156 57 -114 132
-203 212 -254 44 -27 48 -28 155 -23 101 5 118 8 187 41 122 58 179 106 219
185 l35 67 -1 260 c0 285 -5 321 -56 395 -48 69 -84 99 -186 151 l-94 48 -97
-2 c-53 -1 -119 -5 -147 -8z m288 -44 c54 -25 92 -46 141 -79 33 -22 93 -110
108 -158 6 -18 13 -147 16 -285 l6 -253 -37 -74 c-42 -84 -78 -114 -216 -179
-69 -33 -82 -36 -175 -37 l-100 -1 -60 45 c-77 57 -133 130 -180 236 -9 19
-22 47 -30 61 -29 52 -44 141 -46 272 l-3 132 64 122 c35 67 78 136 96 154 51
49 120 68 251 69 99 0 119 -3 165 -25z"/>
</g>
</svg>
