<?xml version="1.0" standalone="no"?>
<!DOCTYPE svg PUBLIC "-//W3C//DTD SVG 20010904//EN"
 "http://www.w3.org/TR/2001/REC-SVG-20010904/DTD/svg10.dtd">
<svg version="1.0" xmlns="http://www.w3.org/2000/svg"
 width="1080.000000pt" height="1080.000000pt" viewBox="0 0 1080.000000 1080.000000"
 preserveAspectRatio="xMidYMid meet">

<g transform="translate(0.000000,1080.000000) scale(0.100000,-0.100000)"
fill="#000000" stroke="none">
<path d="M5515 8224 c-193 -26 -183 -23 -392 -98 -99 -35 -134 -53 -160 -84
-12 -15 -60 -52 -105 -82 -62 -41 -97 -74 -138 -128 -30 -40 -71 -86 -92 -102
-20 -17 -57 -59 -83 -95 -26 -36 -64 -76 -84 -90 -21 -13 -56 -44 -77 -70 -22
-26 -58 -69 -82 -96 -23 -27 -53 -71 -66 -97 -14 -26 -36 -62 -50 -81 -14 -19
-31 -50 -37 -70 -18 -58 -75 -198 -130 -321 -28 -63 -59 -146 -69 -185 -10
-38 -41 -133 -70 -210 -28 -77 -57 -159 -65 -181 -7 -23 -20 -55 -28 -70 -8
-16 -17 -45 -20 -65 -3 -19 -16 -52 -30 -72 -13 -19 -27 -54 -31 -77 -3 -23
-28 -85 -55 -138 -27 -53 -61 -126 -75 -161 -15 -35 -39 -81 -54 -103 -35 -52
-77 -125 -96 -166 -9 -18 -25 -47 -37 -63 -11 -16 -45 -78 -75 -137 -29 -59
-60 -118 -68 -132 -8 -14 -32 -61 -52 -105 -20 -44 -55 -105 -79 -135 -38 -51
-57 -81 -137 -230 -59 -109 -53 -263 13 -338 16 -18 29 -37 29 -43 0 -6 66
-77 148 -159 125 -126 154 -150 192 -160 25 -7 122 -36 215 -66 94 -30 222
-65 285 -80 254 -56 434 -121 512 -183 31 -25 78 -62 104 -81 97 -72 171 -149
198 -209 32 -71 48 -86 122 -113 65 -24 22 -23 644 -15 329 4 457 10 608 28
66 8 103 6 173 -6 121 -21 142 -19 269 15 61 16 123 30 138 30 15 0 61 18 102
40 250 130 492 243 628 295 37 15 104 56 163 100 135 101 139 103 345 160 6 2
14 17 17 34 7 34 32 42 52 15 26 -37 79 16 80 80 0 36 20 45 28 14 6 -22 7
-22 42 12 37 36 85 109 85 130 0 7 33 51 73 98 40 48 76 93 81 100 7 12 56
180 56 195 0 18 -20 4 -26 -19 -9 -37 -36 -26 -49 20 -6 21 -21 48 -33 61 -12
13 -22 28 -22 33 0 16 -30 30 -51 25 -14 -4 -19 0 -19 16 0 12 -9 29 -20 38
-11 10 -20 23 -20 30 0 6 -7 16 -16 21 -9 5 -14 14 -10 21 27 42 159 -44 226
-148 34 -52 58 -53 38 -2 -13 36 -151 161 -207 187 -55 26 -79 51 -157 168
-32 49 -77 110 -100 135 -22 25 -57 71 -78 103 -58 88 -90 107 -56 33 10 -22
30 -51 44 -64 14 -14 26 -30 26 -36 0 -7 12 -17 26 -23 20 -10 25 -18 22 -43
-2 -26 6 -40 47 -84 111 -117 136 -155 101 -155 -14 0 -77 48 -125 98 -15 15
-46 38 -68 51 -43 25 -45 33 -27 114 6 24 3 27 -18 27 -16 0 -39 15 -65 43
-22 23 -54 54 -72 68 -19 17 -31 36 -31 51 0 25 -27 58 -47 58 -18 0 -39 34
-42 68 l-3 32 41 -6 c53 -8 53 5 3 78 -22 30 -42 67 -46 81 -4 19 -13 27 -29
27 -29 0 -40 9 -54 43 -7 15 -21 27 -31 27 -29 0 -62 37 -62 70 0 21 -8 34
-27 47 -16 9 -40 28 -55 41 -14 13 -31 21 -37 18 -20 -13 -11 -42 24 -80 20
-22 38 -51 42 -65 8 -34 22 -51 50 -62 15 -5 21 -14 17 -24 -5 -12 -10 -13
-20 -4 -7 6 -17 8 -23 5 -5 -3 -23 -3 -41 0 -26 6 -31 10 -26 29 7 29 -19 64
-60 81 -35 15 -45 40 -19 50 17 7 20 30 4 40 -6 3 -16 1 -22 -5 -20 -20 -38
-12 -53 24 -12 30 -19 35 -48 35 -36 0 -48 15 -39 49 6 24 14 26 32 9 11 -11
12 -5 9 30 -3 40 -2 42 24 42 22 0 31 -7 39 -27 6 -16 17 -36 26 -45 10 -11
13 -26 8 -46 -8 -36 12 -54 31 -27 9 12 10 24 3 42 -5 13 -9 37 -9 52 0 27
-26 61 -47 61 -5 0 -20 11 -33 25 -13 14 -28 25 -33 25 -6 0 -18 7 -28 16 -20
18 -43 10 -35 -12 9 -24 -19 -15 -49 16 -16 17 -37 30 -47 30 -13 0 -18 -8
-18 -30 0 -16 -5 -30 -11 -30 -7 0 -8 11 -4 31 5 22 2 36 -10 49 -20 22 -11
48 10 30 20 -17 33 -5 27 25 -3 18 2 33 18 50 22 23 22 23 2 34 -12 6 -27 11
-36 11 -10 0 -14 10 -14 29 1 38 -50 91 -86 91 -19 0 -29 7 -36 26 -6 14 -8
29 -5 34 2 4 -4 15 -15 25 -18 16 -20 16 -20 2 0 -23 -16 -21 -51 4 -33 24
-38 49 -9 49 24 0 27 32 5 50 -8 7 -15 23 -15 37 0 13 -17 56 -37 95 -24 46
-36 83 -35 103 3 40 -12 53 -63 57 -33 2 -41 7 -43 26 -4 27 22 40 43 22 9 -7
18 -10 21 -7 7 6 -14 77 -27 91 -9 10 -95 -74 -174 -172 -27 -33 -59 -63 -69
-66 -18 -5 -18 -6 -3 -30 10 -14 17 -32 17 -40 0 -15 -33 -39 -42 -31 -3 3
-19 0 -37 -6 -20 -7 -36 -8 -44 -1 -6 5 -33 12 -58 15 -40 5 -49 3 -68 -17
-11 -12 -21 -25 -21 -29 0 -12 36 -7 56 8 28 21 61 18 74 -6 9 -16 8 -24 -3
-37 -9 -9 -17 -35 -18 -57 -3 -37 -2 -40 21 -37 40 4 50 10 50 30 0 23 55 76
69 68 14 -9 14 -56 1 -56 -15 0 7 -41 34 -62 29 -23 18 -29 -33 -17 -39 9 -47
7 -67 -12 -18 -17 -21 -28 -17 -58 3 -20 10 -42 16 -49 16 -20 29 1 19 29 -10
25 -6 49 8 49 4 0 16 -12 25 -27 17 -25 17 -27 -5 -43 -21 -16 -22 -18 -7 -46
9 -16 23 -44 31 -63 14 -28 18 -32 31 -21 23 19 43 -3 25 -25 -7 -9 -17 -37
-22 -63 -5 -26 -11 -59 -14 -73 -5 -22 0 -31 25 -50 21 -15 31 -31 31 -49 0
-14 4 -30 10 -36 16 -16 27 -162 22 -293 -3 -85 -1 -122 6 -117 6 3 19 -5 29
-18 15 -18 23 -22 37 -14 25 14 46 -8 46 -48 0 -19 3 -34 8 -34 4 -1 17 -9 30
-20 l23 -19 -21 -30 -22 -29 22 -22 c19 -19 21 -29 16 -74 -4 -28 -7 -77 -6
-108 1 -53 -9 -73 -25 -48 -16 25 -27 8 -23 -35 3 -27 1 -46 -5 -48 -14 -4
-37 -106 -30 -134 3 -13 10 -23 16 -23 6 0 1 -9 -11 -20 -12 -11 -19 -27 -16
-35 7 -17 40 -20 49 -5 11 18 25 11 25 -13 0 -21 -15 -42 -55 -75 -10 -8 -13
-21 -10 -33 5 -14 0 -22 -21 -29 l-28 -11 38 -31 c20 -16 35 -35 34 -40 -2 -6
-19 -16 -38 -22 -34 -11 -35 -12 -32 -61 3 -41 0 -54 -17 -69 -24 -22 -27 -51
-6 -59 12 -5 13 -12 0 -53 -8 -26 -14 -50 -13 -53 2 -22 -4 -32 -16 -28 -18 7
-74 -34 -96 -70 -40 -66 -31 -144 16 -135 13 2 31 -1 39 -8 12 -10 19 -10 33
2 9 8 24 18 33 21 9 3 19 22 23 41 5 26 12 36 25 36 31 0 46 -26 32 -56 -15
-33 -14 -47 2 -41 8 3 20 1 28 -3 11 -7 9 -13 -9 -33 -12 -13 -22 -31 -22 -40
0 -31 -88 -11 -119 26 -9 12 -29 17 -67 17 -42 0 -58 5 -74 22 -22 24 -26 44
-9 50 7 2 4 29 -9 78 -11 41 -19 86 -18 100 1 23 -3 25 -46 28 -50 3 -65 18
-25 24 29 4 34 39 7 63 -24 22 -25 43 -5 72 17 24 15 26 -39 71 -21 17 -5 49
26 54 22 3 23 8 24 88 0 47 4 104 9 126 7 39 5 43 -21 58 -16 10 -39 31 -51
49 -20 28 -21 33 -8 48 11 11 16 44 19 107 3 85 2 92 -20 113 -28 26 -30 37
-10 53 25 19 25 96 1 120 -11 11 -13 21 -7 33 6 11 6 57 1 118 -7 84 -6 102 7
116 12 14 14 29 9 68 -5 37 -3 55 9 74 32 47 -5 74 -54 40 -22 -16 -24 -16
-34 2 -6 10 -19 25 -28 34 -22 19 -23 37 -3 48 9 6 16 29 19 64 2 31 11 68 21
83 15 23 16 29 3 44 -21 26 -48 90 -48 116 0 13 6 29 14 35 21 17 17 90 -5
102 -34 18 -24 63 24 108 23 22 50 41 60 41 23 0 31 23 17 50 -7 14 -19 20
-34 18 -25 -3 -106 30 -106 44 0 13 43 9 64 -7 25 -19 56 -19 56 -1 0 7 10 26
21 41 18 22 20 29 8 36 -8 5 -17 9 -22 9 -4 0 -12 11 -17 24 -12 34 -54 40
-176 28 -55 -6 -112 -8 -127 -5 -17 3 -34 0 -45 -10 -13 -11 -32 -14 -77 -10
-146 11 -249 -6 -229 -39 5 -8 -5 -9 -33 -6 -24 4 -53 0 -74 -9 -74 -32 -76
-32 -113 -12 -20 10 -44 19 -54 19 -10 0 -41 23 -69 50 -28 28 -58 50 -67 50
-9 0 -33 15 -53 34 -50 44 -75 56 -115 56 -19 0 -40 6 -46 12 -8 8 -36 12 -81
9 -53 -2 -80 2 -119 19 -28 12 -57 28 -63 36 -17 21 -34 17 -47 -12 -11 -23
-15 -25 -60 -18 -56 8 -74 20 -70 47 3 21 78 50 104 40 9 -3 14 2 14 15 0 16
-6 20 -32 18 -27 -1 -34 3 -36 22 -3 20 0 23 20 20 40 -5 36 36 -8 77 -20 19
-41 35 -45 35 -17 0 -9 95 11 139 11 24 20 48 20 53 0 6 12 25 28 42 15 18 42
51 61 74 19 23 42 42 50 42 9 1 35 18 58 38 34 31 39 41 31 56 -8 14 -7 21 3
27 10 6 15 3 17 -11 2 -11 7 -20 10 -20 17 0 52 33 52 49 0 9 17 35 38 58 20
22 54 59 75 82 21 22 43 41 49 41 15 0 58 48 58 66 0 7 18 33 40 55 22 23 40
45 40 49 0 15 83 65 220 132 135 66 162 76 275 99 65 13 256 21 272 10 5 -3
23 -29 39 -57 49 -86 83 -133 104 -144 21 -11 21 -11 6 18 -8 15 -21 34 -28
40 -8 6 -29 47 -48 91 l-34 81 -74 31 c-78 32 -116 40 -167 33z m932 -1391
c13 -37 6 -53 -21 -53 -20 0 -23 5 -22 33 1 29 11 46 28 47 3 0 10 -12 15 -27z
m-1913 -113 c19 -19 19 -19 0 -25 -44 -14 -49 -21 -50 -76 -1 -91 -43 -167
-86 -156 -14 4 -16 -5 -16 -64 0 -54 -5 -75 -22 -98 -11 -17 -27 -59 -34 -94
-8 -35 -18 -72 -24 -83 -5 -10 -13 -40 -17 -66 -4 -29 -17 -58 -31 -73 -13
-14 -24 -34 -24 -44 0 -10 -10 -26 -21 -37 -18 -16 -49 -71 -49 -87 0 -2 11
-2 24 0 38 8 39 -22 3 -72 -17 -24 -38 -44 -44 -44 -19 -1 -16 -51 4 -73 15
-17 15 -20 3 -28 -8 -6 -23 -10 -32 -10 -9 0 -20 -10 -24 -22 -4 -12 -31 -48
-61 -80 -39 -40 -58 -69 -64 -99 -6 -23 -30 -68 -54 -100 -26 -34 -42 -65 -39
-73 3 -8 -1 -25 -10 -38 -27 -38 -20 -52 14 -28 l29 21 15 -28 c13 -26 12 -30
-11 -57 -22 -26 -26 -28 -35 -13 -12 22 -37 21 -68 -3 -20 -16 -23 -22 -14
-37 6 -10 20 -19 30 -21 42 -7 45 -11 34 -32 -9 -17 -14 -19 -26 -10 -7 7 -21
10 -29 6 -12 -4 -14 -10 -5 -25 8 -16 5 -23 -20 -41 -33 -23 -39 -40 -15 -40
32 0 13 -51 -41 -113 -20 -21 -34 -48 -34 -62 0 -14 -7 -36 -15 -49 -15 -22
-14 -24 15 -36 59 -25 78 -85 28 -92 -17 -2 -24 -11 -26 -33 -4 -36 -19 -55
-42 -55 -10 0 -43 -11 -74 -25 -64 -28 -72 -50 -32 -90 32 -31 65 -39 112 -26
52 14 66 0 33 -35 -13 -14 -39 -32 -56 -39 -47 -20 -44 -47 5 -43 31 3 37 0
37 -17 0 -16 -6 -20 -33 -17 -31 2 -32 1 -30 -30 2 -26 -2 -35 -19 -43 -13 -5
-23 -15 -23 -21 0 -25 30 -22 69 7 23 16 47 29 55 29 8 0 21 8 28 18 7 9 30
28 50 42 39 26 73 91 56 108 -6 6 0 23 16 47 14 21 31 55 37 77 5 22 12 45 15
52 3 9 -7 18 -26 24 -39 14 -47 37 -26 72 9 16 16 38 16 51 0 12 27 64 59 115
33 50 57 95 54 98 -3 3 4 22 16 42 12 21 24 53 27 71 2 19 11 48 20 64 8 17
12 38 9 48 -6 21 18 51 40 51 20 0 28 19 15 35 -16 20 -4 35 28 35 57 1 81 51
56 114 -6 17 -4 18 20 12 38 -9 57 8 49 45 -3 16 -1 35 5 41 5 7 13 29 17 48
4 19 16 47 26 62 24 33 24 44 -1 70 -26 28 -25 37 4 48 24 9 44 45 32 57 -3 4
1 17 9 29 14 21 26 62 44 144 4 19 15 47 24 61 14 21 15 32 7 53 -17 46 -12
75 15 88 18 8 25 19 25 40 0 16 6 31 15 34 8 4 15 16 15 29 0 13 -7 25 -15 29
-19 7 -20 36 0 36 20 0 45 52 45 95 0 19 6 44 13 56 10 17 9 22 -5 33 -24 18
-23 30 2 23 10 -3 23 0 29 7 17 21 64 140 83 211 21 81 44 104 103 105 80 0
137 -65 85 -98 -21 -13 -27 -56 -9 -68 6 -3 15 -2 21 4 14 14 99 2 130 -19 14
-11 39 -19 56 -19 16 0 41 -9 56 -21 17 -13 33 -18 46 -14 11 4 36 1 56 -5 29
-10 43 -9 79 4 25 10 54 14 69 10 20 -5 26 -2 26 9 0 39 71 62 110 37 13 -9
13 -11 0 -20 -8 -5 -21 -10 -28 -10 -7 0 -23 -7 -36 -15 -13 -9 -28 -15 -32
-13 -5 1 -27 -14 -49 -35 -22 -20 -47 -37 -56 -37 -20 0 -49 -57 -49 -94 0
-14 -7 -46 -15 -70 -9 -25 -17 -78 -19 -118 -2 -40 -11 -99 -20 -130 -10 -32
-16 -66 -15 -75 1 -10 -1 -25 -4 -33 -6 -14 -38 -147 -52 -218 -4 -20 -2 -38
5 -47 16 -20 38 -120 33 -149 -7 -35 -29 -39 -52 -10 -23 29 -33 19 -33 -32 0
-19 -4 -36 -8 -39 -5 -3 -12 -27 -16 -53 -4 -26 -13 -59 -20 -73 -7 -15 -18
-57 -24 -95 -6 -38 -17 -78 -24 -89 -14 -21 -37 -116 -41 -171 -2 -18 -8 -41
-14 -51 -5 -11 -10 -52 -9 -91 0 -58 -4 -76 -21 -98 -11 -15 -21 -36 -21 -48
-1 -11 -7 -32 -15 -46 -8 -14 -15 -45 -15 -70 0 -25 -7 -63 -14 -85 -13 -35
-13 -43 0 -63 18 -27 10 -62 -13 -62 -23 0 -53 -30 -53 -52 0 -10 -11 -24 -25
-30 -15 -7 -25 -20 -25 -32 0 -12 -7 -43 -15 -71 -9 -27 -19 -87 -24 -133 -6
-55 -14 -89 -25 -100 -9 -9 -23 -26 -31 -37 -13 -19 -14 -19 -32 -2 -11 9 -24
17 -30 17 -20 0 -37 30 -25 42 7 7 12 35 12 63 0 28 6 59 14 70 7 11 21 46 31
79 17 55 18 59 2 71 -15 11 -15 14 -3 24 8 6 19 25 26 40 6 16 25 35 41 41 35
15 38 42 7 63 l-23 16 23 16 c12 9 22 22 22 29 0 7 14 25 30 41 31 29 38 53
20 71 -6 6 -1 36 15 85 15 49 22 92 20 121 -4 46 12 109 33 130 8 8 8 16 2 23
-16 19 0 75 26 92 13 8 24 24 24 35 0 10 6 29 14 41 8 12 14 45 14 76 -1 47 2
55 23 67 22 11 26 23 38 106 7 51 18 102 25 113 16 26 37 110 32 127 -2 7 -7
32 -10 56 -6 40 -5 43 15 40 20 -3 24 4 36 67 8 38 19 76 25 82 12 15 35 119
53 233 6 40 4 48 -19 69 -18 17 -26 35 -26 57 0 26 -5 33 -25 38 -14 4 -25 11
-25 17 0 7 7 8 18 4 47 -20 57 -13 60 45 2 31 10 62 18 71 10 11 14 31 12 54
-3 34 -6 38 -63 61 -33 13 -67 24 -77 24 -16 0 -38 -46 -38 -81 0 -11 -9 -28
-20 -39 -12 -12 -25 -32 -30 -46 -14 -35 -35 -25 -36 17 -2 61 -4 69 -13 69
-5 0 -13 -24 -18 -52 l-8 -53 -50 -6 c-87 -11 -95 -16 -95 -58 0 -43 -17 -99
-36 -122 -8 -8 -14 -27 -14 -41 0 -14 -11 -42 -25 -62 -14 -20 -25 -43 -25
-50 0 -8 -7 -19 -15 -26 -8 -7 -15 -27 -15 -44 0 -18 -5 -37 -12 -44 -7 -7
-12 -27 -13 -44 0 -27 -8 -37 -43 -61 -36 -24 -43 -34 -38 -52 3 -13 -3 -42
-14 -67 -11 -23 -20 -64 -20 -89 0 -25 -7 -54 -15 -65 -8 -10 -15 -27 -15 -36
0 -10 -14 -33 -31 -52 -17 -20 -33 -51 -36 -73 -3 -21 -15 -51 -26 -66 -11
-16 -22 -52 -24 -80 -3 -29 -14 -69 -24 -89 -10 -20 -19 -43 -19 -50 0 -7 -18
-48 -39 -91 -37 -74 -38 -78 -22 -99 21 -25 59 -20 91 12 11 11 24 20 28 20
25 0 45 42 43 90 -1 34 3 50 11 52 7 0 18 2 23 2 36 5 50 58 18 70 -15 6 -14
9 7 19 19 10 24 20 25 53 1 24 12 64 27 91 18 36 23 55 16 67 -13 22 5 43 43
51 46 10 58 -6 55 -76 -2 -33 -7 -64 -13 -70 -15 -15 -4 -49 15 -49 8 0 23 7
32 15 15 14 19 13 35 -5 24 -27 14 -34 -45 -33 -33 0 -50 -4 -54 -13 -3 -8
-12 -14 -19 -14 -17 0 -33 -63 -17 -68 5 -2 10 -8 10 -14 0 -7 -5 -6 -14 1
-17 14 -17 13 -41 -64 -25 -85 -34 -101 -62 -116 -17 -9 -24 -21 -22 -38 3
-62 -1 -93 -13 -88 -19 6 -48 -11 -48 -28 0 -10 10 -15 28 -15 l27 -1 -39 -33
c-35 -30 -40 -39 -41 -80 0 -38 4 -49 22 -62 13 -8 23 -18 23 -23 0 -16 -88
-61 -112 -59 -20 3 -23 -1 -20 -24 1 -15 -4 -54 -13 -87 -21 -84 -20 -114 8
-126 35 -16 28 -39 -13 -43 -58 -6 -88 -45 -54 -73 11 -9 14 -26 12 -58 -3
-43 -1 -46 23 -49 15 -2 32 5 44 18 24 26 41 25 61 -4 8 -14 22 -22 29 -20 20
8 30 -35 12 -53 -16 -17 -21 -15 -76 18 -24 14 -37 17 -44 10 -6 -6 -25 -11
-42 -11 -35 0 -55 -15 -55 -42 0 -28 35 -41 76 -28 31 11 36 10 54 -12 11 -12
19 -19 20 -14 0 12 50 -34 50 -46 0 -24 -122 2 -201 43 -24 12 -62 25 -84 28
-32 5 -41 11 -43 29 -2 12 1 22 7 22 6 0 11 9 11 20 0 27 -7 25 -40 -10 -23
-25 -36 -30 -74 -30 -26 0 -58 7 -71 16 -13 8 -52 22 -87 30 -90 21 -116 33
-131 62 -6 14 -23 29 -37 32 -40 11 -124 67 -111 74 15 10 14 34 -1 33 -23 -1
-98 38 -98 51 0 7 5 22 11 33 8 16 13 18 25 8 18 -15 27 -6 29 29 3 54 -30 70
-46 22 -13 -36 -26 -39 -35 -6 -8 34 2 46 36 46 38 0 42 9 32 75 -7 41 -6 60
4 73 11 14 13 14 14 2 0 -9 3 -11 8 -5 4 6 19 16 34 24 23 12 35 12 69 2 31
-9 44 -10 55 0 19 15 18 48 -2 70 -24 26 -9 83 32 119 39 34 45 73 14 92 -12
8 -20 24 -20 39 0 14 -3 29 -6 32 -12 12 -64 -34 -64 -57 0 -12 -5 -27 -12
-34 -9 -9 -7 -16 6 -31 10 -11 16 -27 13 -36 -9 -21 -47 -19 -48 3 0 9 -2 32
-3 50 -2 19 3 41 13 55 10 12 23 42 31 67 7 25 18 51 23 58 11 14 57 17 57 3
0 -5 13 -14 29 -21 50 -20 91 16 91 80 0 27 -2 30 -25 24 -34 -8 -115 26 -115
49 0 24 36 57 61 57 21 0 22 5 8 60 -3 10 4 15 21 15 35 0 50 12 50 42 0 23 3
25 29 20 23 -5 34 1 66 33 21 22 36 42 32 46 -8 8 -45 7 -81 -2 -22 -5 -28 -4
-24 7 2 8 18 16 34 17 40 5 56 21 49 49 -5 20 -2 23 23 23 33 0 52 16 52 43 0
16 -6 19 -36 15 -35 -4 -36 -4 -29 26 4 17 8 42 9 56 1 31 66 60 91 40 21 -18
19 -24 -15 -37 -19 -7 -30 -18 -30 -31 0 -23 21 -44 36 -34 11 8 27 40 29 58
0 6 6 19 14 28 9 10 11 28 7 51 l-7 36 36 -7 c43 -8 74 14 68 49 -3 15 4 30
21 46 37 35 37 107 0 151 -26 30 -26 31 -8 51 10 11 25 18 33 17 9 -1 22 1 29
6 11 6 9 13 -8 31 -19 20 -20 26 -8 45 7 11 25 24 41 27 39 8 35 36 -9 52 -20
7 -32 17 -27 21 16 15 110 40 126 34 29 -11 20 22 -9 35 -23 10 -26 16 -21 47
3 19 2 47 -4 61 -8 21 -6 30 11 48 24 25 25 41 5 49 -26 10 -16 25 24 37 22 7
44 21 51 34 11 20 9 27 -9 46 -28 30 -27 36 9 54 29 15 34 25 31 53 -1 6 3 12
8 12 5 0 11 -12 13 -27 5 -42 32 -40 73 4 42 45 43 56 10 71 -32 15 -31 26 1
58 21 22 31 25 62 19 20 -3 46 -15 56 -25z m1957 10 l46 -12 -2 -61 c-2 -77
-20 -117 -52 -117 -12 0 -23 5 -23 10 0 6 -20 19 -44 30 -35 14 -46 25 -51 49
-11 52 7 64 45 31 22 -19 50 -27 50 -14 0 3 -12 21 -27 40 -22 26 -35 34 -60
34 -48 0 -40 18 10 22 49 4 48 4 108 -12z m-1903 -59 c3 -8 -1 -12 -9 -9 -7 2
-15 10 -17 17 -3 8 1 12 9 9 7 -2 15 -10 17 -17z m2017 -100 c3 -5 1 -12 -4
-15 -5 -3 -11 1 -15 9 -6 16 9 21 19 6z m-744 -11 c26 -14 24 -39 -3 -44 -79
-16 -116 -16 -132 0 -21 20 -19 23 41 39 61 17 70 17 94 5z m-312 -36 c-17
-21 -31 -17 -19 6 6 11 15 18 21 14 6 -4 6 -11 -2 -20z m109 2 c2 -10 -1 -22
-8 -26 -16 -10 -60 0 -60 14 0 36 62 47 68 12z m880 -85 c24 -15 10 -46 -18
-43 -27 4 -53 29 -44 43 7 11 45 11 62 0z m-938 -21 l25 -20 -22 -19 c-13 -11
-23 -28 -23 -40 0 -11 -9 -25 -21 -31 -17 -10 -19 -18 -14 -50 5 -30 3 -40
-10 -47 -9 -5 -22 -20 -28 -33 -7 -13 -28 -32 -47 -42 -19 -11 -41 -27 -48
-36 -11 -15 -14 -15 -28 -1 -23 24 -9 68 25 75 90 21 86 18 86 58 0 24 7 43
18 51 24 17 21 27 -13 47 -17 9 -30 24 -30 33 0 21 -29 19 -37 -2 -4 -10 -9
-20 -13 -23 -3 -3 -17 -26 -30 -53 -24 -46 -49 -65 -70 -52 -18 11 -11 33 17
55 24 18 26 24 15 41 -17 27 13 99 40 99 22 0 94 -35 103 -50 10 -16 35 -12
35 6 0 23 19 54 33 54 7 0 23 -9 37 -20z m398 -28 c2 -7 -6 -12 -17 -12 -12 0
-21 -4 -21 -10 0 -5 -10 -10 -22 -10 -22 1 -21 2 5 16 15 8 27 19 27 25 0 14
23 6 28 -9z m786 -38 c26 -10 18 -42 -14 -59 -40 -21 -70 -11 -70 21 0 21 3
24 25 18 18 -4 27 -1 31 10 7 18 7 18 28 10z m-1019 -14 c10 -16 -15 -51 -33
-48 -21 4 -28 38 -10 49 18 12 35 11 43 -1z m752 -49 c-8 -23 -7 -36 6 -64 9
-19 17 -40 17 -45 0 -6 19 -17 43 -24 34 -12 42 -19 42 -39 0 -23 -3 -24 -68
-24 -38 -1 -71 3 -74 9 -3 5 -7 45 -8 88 -2 65 1 83 17 103 26 34 39 31 25 -4z
m147 5 c-7 -18 -32 -28 -46 -20 -7 5 -4 12 7 21 25 17 46 17 39 -1z m226 -53
c2 -2 -1 -12 -6 -21 -8 -11 -25 -17 -53 -18 -48 -1 -77 16 -68 39 5 13 17 15
64 10 32 -3 60 -8 63 -10z m-2055 -52 c-3 -11 1 -36 10 -56 8 -21 15 -44 15
-51 0 -15 -49 -39 -58 -29 -13 12 -8 111 6 133 18 27 36 29 27 3z m-690 -20
c7 -12 -12 -24 -25 -16 -11 7 -4 25 10 25 5 0 11 -4 15 -9z m665 -194 c0 -42
-5 -58 -21 -73 -17 -15 -19 -26 -14 -60 4 -31 2 -46 -10 -57 -18 -19 -21 -132
-3 -143 7 -5 4 -10 -10 -15 -27 -10 -28 -29 -2 -36 23 -6 24 -8 10 -34 -15
-26 -30 -24 -30 5 0 14 -5 28 -11 31 -6 4 -7 19 -4 37 8 33 -16 68 -46 68 -26
0 -30 14 -15 51 7 19 12 39 9 45 -2 7 8 22 24 33 23 19 25 25 15 41 -19 31
-14 63 13 89 14 13 25 29 25 36 0 12 35 33 58 34 8 1 12 -16 12 -52z m480 41
c0 -23 -15 -35 -39 -33 -33 2 -38 23 -9 34 33 14 48 13 48 -1z m1318 -11 c2
-10 -4 -27 -13 -37 -14 -15 -16 -29 -11 -64 7 -45 -1 -60 -34 -61 -10 0 -16
-12 -18 -33 -5 -53 -27 -33 -25 22 2 30 -3 56 -13 71 -18 28 -12 45 17 45 13
0 24 13 35 41 13 31 21 39 38 37 11 -2 22 -11 24 -21z m142 -3 c0 -8 -4 -14
-10 -14 -5 0 -10 9 -10 21 0 11 5 17 10 14 6 -3 10 -13 10 -21z m-1464 -127
c4 -15 11 -30 15 -33 19 -11 -4 -24 -44 -24 -31 0 -45 -5 -55 -20 -14 -23 -42
-27 -42 -5 0 8 11 17 24 21 30 7 54 71 37 101 -5 11 -8 23 -4 26 11 12 63 -38
69 -66z m1492 25 c4 -35 -12 -43 -28 -13 -16 30 -12 53 8 49 11 -2 18 -14 20
-36z m-1326 -37 c24 -22 27 -31 26 -99 0 -41 3 -79 6 -85 3 -5 20 -12 36 -16
17 -4 30 -11 30 -17 0 -5 7 -25 16 -43 12 -27 13 -38 4 -56 -10 -18 -9 -23 3
-31 31 -17 47 -40 47 -66 0 -15 3 -37 6 -49 5 -17 2 -23 -10 -23 -9 0 -16 7
-16 15 0 8 -5 15 -11 15 -15 0 1 -93 19 -106 12 -9 14 -35 10 -155 -3 -83 -1
-155 5 -169 12 -32 19 -431 7 -445 -10 -12 -13 -76 -11 -263 2 -112 -1 -144
-19 -197 -20 -61 -21 -65 -4 -91 17 -25 17 -27 -1 -40 -10 -8 -23 -14 -27 -14
-5 0 -5 -12 -2 -26 5 -20 0 -32 -25 -56 -43 -42 -49 -72 -22 -108 11 -16 21
-33 21 -39 0 -10 -79 -51 -98 -51 -7 0 -12 5 -12 10 0 6 3 10 8 10 4 0 5 23 4
50 -3 36 2 61 15 88 11 20 23 60 26 87 6 41 3 57 -16 90 -21 37 -25 39 -62 37
-48 -3 -62 5 -66 38 -3 17 -10 25 -24 25 -18 0 -20 -7 -20 -60 l0 -60 -50 3
c-61 4 -82 20 -66 51 7 11 18 21 26 21 18 0 19 20 3 55 -10 21 -9 27 7 39 10
7 15 18 11 25 -17 27 -15 74 4 101 26 36 25 37 -10 45 -38 8 -39 34 -4 72 22
23 25 35 21 68 -5 32 -1 45 15 62 20 22 20 32 -4 64 -16 23 -3 49 26 49 17 0
30 -10 44 -34 34 -57 37 -77 13 -83 -26 -7 -26 -8 1 -61 36 -66 83 -72 59 -7
-14 40 -9 55 20 55 14 0 19 -7 19 -30 0 -38 35 -61 45 -30 4 12 0 31 -8 44
-20 30 -38 261 -22 286 4 6 7 61 6 123 0 110 -1 112 -28 134 l-27 22 23 25
c22 24 23 29 14 101 -7 60 -6 78 4 87 8 6 13 21 11 32 -2 17 -10 21 -40 21
-20 0 -40 3 -44 8 -11 11 -50 9 -79 -5 -34 -15 -75 3 -75 33 0 21 3 21 53 14
28 -4 68 -8 87 -9 34 -1 35 1 40 39 3 22 10 39 16 38 6 -1 15 47 22 114 14
129 7 156 -43 169 -28 7 -31 21 -11 49 12 17 12 24 -1 48 -14 28 -13 31 13 58
15 16 30 29 33 29 4 0 18 -11 33 -25z m438 -20 c0 -8 -7 -15 -15 -15 -26 0
-18 20 13 29 1 1 2 -6 2 -14z m1040 -4 c0 -12 -20 -25 -27 -18 -7 7 6 27 18
27 5 0 9 -4 9 -9z m-73 -53 c-3 -8 -6 -5 -6 6 -1 11 2 17 5 13 3 -3 4 -12 1
-19z m-1043 -55 c17 -35 17 -38 0 -50 -27 -20 -40 -16 -69 19 l-27 32 22 18
c34 27 54 22 74 -19z m1160 -36 c31 -25 29 -47 -5 -47 -10 0 -19 1 -19 3 0 1
-4 17 -9 35 -11 38 -6 40 33 9z m-1634 -18 c0 -11 -4 -17 -10 -14 -5 3 -10 13
-10 21 0 8 5 14 10 14 6 0 10 -9 10 -21z m1776 -4 c6 -14 -30 -54 -48 -55 -15
0 -21 52 -7 61 22 14 49 11 55 -6z m-3208 -17 c-6 -18 -28 -21 -28 -4 0 9 7
16 16 16 9 0 14 -5 12 -12z m1262 2 c0 -5 -5 -10 -11 -10 -5 0 -7 5 -4 10 3 6
8 10 11 10 2 0 4 -4 4 -10z m1429 -37 c6 -20 7 -41 4 -46 -3 -6 -5 -36 -4 -67
2 -68 -16 -97 -50 -79 -14 7 -18 16 -13 27 4 9 11 44 15 76 7 48 6 62 -6 76
-25 28 -19 50 15 50 25 0 30 -5 39 -37z m-799 -18 c0 -16 -27 -32 -37 -22 -3
4 -3 13 0 22 8 20 37 20 37 0z m1209 -45 c14 -25 20 -47 16 -58 -4 -9 -10 -46
-14 -82 -7 -72 -29 -89 -44 -35 -5 17 -15 50 -22 75 -14 42 -13 46 6 61 13 9
20 25 19 40 -5 53 8 53 39 -1z m-499 20 c0 -5 -7 -10 -15 -10 -8 0 -15 5 -15
10 0 6 7 10 15 10 8 0 15 -4 15 -10z m679 -25 c2 -2 -3 -11 -12 -19 -13 -14
-16 -14 -27 0 -8 8 -21 12 -31 9 -19 -6 -26 5 -12 19 7 7 73 -1 82 -9z m-2529
-15 c27 -14 37 -70 15 -82 -15 -9 -15 -12 4 -32 27 -29 32 -69 8 -74 -29 -6
-49 18 -45 56 3 33 0 36 -35 46 l-38 11 33 43 c36 47 33 45 58 32z m2648 1 c8
-4 12 -19 10 -32 -2 -18 -8 -23 -23 -21 -11 2 -27 4 -36 5 -17 1 -15 20 4 45
11 14 26 15 45 3z m-3178 -39 c0 -10 -13 -28 -30 -40 -30 -22 -30 -22 -30 -2
0 11 7 20 15 20 8 0 19 9 25 20 13 25 20 25 20 2z m1800 -23 c0 -16 -29 -22
-45 -9 -22 19 0 43 26 29 10 -5 19 -14 19 -20z m1260 -23 c0 -27 -28 -43 -36
-21 -9 21 3 45 21 45 9 0 15 -9 15 -24z m-2660 -6 c0 -5 -5 -10 -11 -10 -5 0
-7 5 -4 10 3 6 8 10 11 10 2 0 4 -4 4 -10z m2947 -22 c-3 -8 -6 -5 -6 6 -1 11
2 17 5 13 3 -3 4 -12 1 -19z m-162 -4 c9 -4 21 -17 26 -31 5 -13 20 -28 33
-33 13 -5 27 -13 30 -18 3 -5 17 -7 31 -5 20 4 27 0 35 -22 15 -39 12 -55 -11
-63 -20 -8 -20 -8 -1 -25 16 -15 24 -16 45 -6 50 23 81 -18 32 -43 l-24 -13
30 -45 c17 -25 41 -51 55 -58 30 -16 31 -36 2 -49 -34 -15 -88 -5 -88 17 0 10
-9 24 -20 31 -17 12 -18 19 -10 57 6 24 8 47 5 52 -6 10 -127 1 -139 -11 -14
-13 -50 -11 -64 3 -7 7 -12 24 -12 38 0 37 -32 65 -58 51 -11 -6 -22 -8 -25
-4 -11 10 3 23 25 23 46 0 73 54 48 99 -6 13 -5 24 6 39 16 24 23 26 49 16z
m-87 -56 c-2 -12 -9 -23 -15 -26 -19 -6 -29 28 -12 39 23 14 31 10 27 -13z
m-1838 -131 c0 -19 -21 -37 -42 -37 -21 0 -24 20 -6 38 16 16 48 15 48 -1z
m1484 -96 c9 -16 13 -31 10 -34 -12 -11 -64 15 -64 32 0 41 34 42 54 2z
m-1663 -13 c-4 -12 -13 -24 -19 -26 -16 -5 -15 35 1 41 23 10 26 7 18 -15z
m119 -14 c0 -8 -10 -14 -25 -14 -28 0 -29 3 -14 31 8 16 13 18 25 8 8 -6 14
-18 14 -25z m1750 7 c0 -34 -23 -43 -74 -30 -25 6 -46 15 -46 20 0 15 35 28
78 29 35 0 42 -3 42 -19z m-1900 -50 c0 -11 -4 -23 -10 -26 -6 -4 -10 5 -10
19 0 14 5 26 10 26 6 0 10 -9 10 -19z m1591 -14 c-8 -8 -11 -7 -11 4 0 20 13
34 18 19 3 -7 -1 -17 -7 -23z m162 27 c3 -3 0 -15 -6 -26 -10 -16 -9 -22 7
-33 15 -12 18 -22 13 -59 -4 -26 -2 -48 3 -51 6 -4 8 -11 4 -16 -3 -5 13 -30
35 -55 22 -26 38 -50 35 -55 -7 -12 18 -79 30 -79 5 0 18 8 28 17 15 13 21 14
31 4 9 -10 7 -16 -12 -32 -17 -14 -20 -23 -13 -32 9 -11 19 -70 26 -164 2 -24
8 -55 14 -70 6 -16 13 -54 16 -85 3 -32 11 -68 17 -82 9 -20 8 -33 -10 -69
-26 -53 -43 -70 -95 -91 -44 -18 -56 -14 -56 19 0 28 -17 42 -33 26 -7 -7 -7
-18 1 -36 7 -15 9 -38 5 -53 l-7 -27 -6 25 c-8 32 -34 37 -57 11 -9 -12 -20
-21 -23 -21 -3 0 -5 30 -5 67 0 44 -4 68 -12 71 -15 4 -18 42 -4 42 5 0 4 15
-2 35 -9 30 -7 38 9 56 10 12 19 31 19 42 0 13 7 23 18 25 12 3 17 -3 17 -22
0 -29 54 -76 88 -76 37 0 50 36 47 135 -2 50 -3 93 -4 98 -2 14 -20 7 -24 -10
-3 -12 -5 -8 -6 9 -1 23 -6 27 -33 30 -39 4 -46 31 -10 36 34 5 37 25 14 85
-12 28 -22 61 -24 72 -2 11 -10 20 -18 20 -22 0 -38 42 -33 84 5 33 1 41 -30
68 -34 30 -34 31 -23 74 11 44 42 99 55 99 4 0 10 -3 14 -6z m282 -23 c16 -4
31 -14 33 -24 4 -21 -16 -22 -45 -2 -21 15 -23 14 -40 -12 -24 -38 -34 -43
-56 -32 -28 16 -20 71 13 80 14 4 34 5 45 2 11 -2 33 -8 50 -12z m-2580 -60
c0 -29 -2 -54 -6 -56 -3 -3 -16 3 -28 12 -16 11 -20 18 -12 26 6 6 11 23 11
37 0 15 3 30 7 34 17 16 28 -5 28 -53z m3133 48 c-2 -6 -8 -10 -13 -10 -5 0
-11 4 -13 10 -2 6 4 11 13 11 9 0 15 -5 13 -11z m-2384 -15 c11 -4 14 -13 10
-30 -4 -16 -1 -31 10 -43 9 -9 18 -33 21 -52 5 -28 4 -30 -4 -11 -12 25 -15
26 -42 12 -26 -14 -24 -28 6 -42 28 -13 33 -39 10 -58 -11 -9 -13 -16 -5 -24
13 -13 13 -86 0 -86 -5 0 -20 -11 -33 -25 l-23 -26 -24 26 -23 25 28 0 c25 0
54 22 55 43 0 13 -43 7 -61 -9 -10 -9 -23 -13 -28 -9 -15 9 15 65 34 65 31 0
36 39 12 88 -9 20 -8 25 6 33 21 12 22 42 1 74 -25 38 4 67 50 49z m1975 -11
l23 -6 -23 -13 c-33 -18 -39 -17 -39 6 0 22 3 23 39 13z m-2109 -22 c0 -11 -9
-23 -21 -26 -14 -5 -18 -12 -13 -23 3 -10 9 -27 11 -39 5 -21 1 -23 -30 -23
-20 0 -39 5 -42 11 -4 5 -18 15 -32 20 -24 9 -25 11 -9 28 9 10 14 25 10 34
-4 11 1 18 18 21 12 3 32 7 43 9 48 11 65 7 65 -12z m2421 -51 c3 -55 -12
-100 -32 -100 -6 0 -9 6 -6 14 4 9 -3 15 -22 18 -25 4 -27 2 -17 -17 17 -32
82 -105 93 -105 6 0 13 9 16 20 6 22 36 27 55 8 13 -13 16 -57 5 -59 -5 -1
-19 -3 -32 -4 -27 -3 -64 -41 -55 -56 3 -5 25 -9 50 -9 39 0 44 -2 44 -23 0
-13 -3 -26 -6 -29 -8 -8 -67 15 -80 31 -12 16 -34 7 -34 -14 0 -15 15 -27 100
-81 30 -19 67 -34 82 -34 32 0 35 -15 12 -48 -30 -43 2 -147 48 -154 16 -2 24
-11 26 -28 9 -78 34 -93 70 -42 20 27 20 76 1 88 -13 8 -11 52 3 60 15 10 78
-65 78 -93 0 -16 -8 -25 -26 -29 -19 -5 -24 -12 -22 -29 1 -12 -8 -35 -22 -52
-14 -17 -29 -37 -35 -46 -7 -10 -35 -16 -97 -20 -49 -3 -88 -2 -88 2 0 4 9 16
20 26 18 16 25 17 60 6 22 -7 45 -9 50 -6 18 11 10 35 -14 47 -16 6 -26 21
-28 37 -2 18 -10 27 -26 29 -12 2 -27 12 -32 23 -9 15 -22 19 -62 19 -43 0
-64 8 -130 46 -43 25 -78 50 -78 55 0 16 -89 99 -106 99 -13 0 -15 -7 -10 -35
6 -32 5 -35 -17 -35 -37 0 -48 18 -31 51 13 26 12 32 -6 66 -24 45 -27 108 -5
117 22 8 18 36 -4 36 -21 0 -81 46 -81 62 0 5 9 12 20 15 28 7 25 24 -10 63
-16 18 -30 36 -30 40 0 13 57 60 73 60 10 0 30 -8 45 -19 32 -22 117 -19 108
5 -8 21 26 56 47 49 9 -4 17 -13 17 -19 0 -7 6 -21 14 -32 14 -19 15 -19 40 5
14 14 26 31 26 38 0 23 21 56 30 47 5 -5 10 -34 11 -64z m-1866 50 c3 -6 -1
-13 -10 -16 -19 -8 -30 0 -20 15 8 14 22 14 30 1z m-720 -100 c0 -18 -6 -26
-21 -28 -26 -4 -40 24 -23 45 18 21 44 11 44 -17z m-549 6 c9 -24 -15 -56 -41
-56 -28 0 -32 18 -13 50 15 23 46 26 54 6z m744 -45 c0 -6 -4 -13 -10 -16 -5
-3 -10 1 -10 9 0 9 5 16 10 16 6 0 10 -4 10 -9z m1810 -6 c0 -8 -4 -15 -9 -15
-13 0 -22 16 -14 24 11 11 23 6 23 -9z m-1909 -21 c21 -26 -19 -45 -51 -24
-13 9 -12 12 4 25 25 19 30 19 47 -1z m1709 -11 c10 -9 -34 -33 -62 -33 -27 0
-55 30 -40 44 7 8 93 -2 102 -11z m-342 -21 c3 -19 -1 -23 -15 -20 -10 2 -19
14 -21 26 -3 19 1 23 15 20 10 -2 19 -14 21 -26z m-1488 -12 c0 -5 -4 -10 -10
-10 -5 0 -10 5 -10 10 0 6 5 10 10 10 6 0 10 -4 10 -10z m-535 -20 c3 -5 -1
-10 -10 -10 -9 0 -13 5 -10 10 3 6 8 10 10 10 2 0 7 -4 10 -10z m91 -1 c10
-17 -13 -36 -27 -22 -12 12 -4 33 11 33 5 0 12 -5 16 -11z m2579 -29 c4 -6 4
-18 1 -27 -5 -12 -9 -13 -21 -3 -8 7 -15 19 -15 26 0 16 26 19 35 4z m-1375
-4 c0 -3 -4 -8 -10 -11 -5 -3 -10 -1 -10 4 0 6 5 11 10 11 6 0 10 -2 10 -4z
m2090 -51 c0 -20 -23 -29 -55 -21 -46 12 -26 30 38 35 9 0 17 -6 17 -14z
m-1000 -31 c0 -8 -7 -14 -15 -14 -15 0 -21 21 -9 33 10 9 24 -2 24 -19z m-844
-33 c-8 -12 -56 -15 -56 -4 0 3 8 15 17 25 14 16 19 17 31 4 8 -8 11 -19 8
-25z m1914 -1 c13 -24 55 -27 64 -5 11 28 29 16 23 -15 -5 -25 -2 -33 19 -46
20 -14 24 -24 22 -53 -2 -27 -8 -37 -23 -39 -11 -2 -35 -11 -53 -20 -29 -13
-35 -13 -43 -1 -20 33 -2 57 30 40 23 -13 47 10 37 35 -5 12 -14 15 -40 10
-31 -6 -36 -4 -48 21 -10 21 -22 29 -46 31 -32 3 -41 15 -21 27 5 4 14 18 20
31 7 21 12 23 29 14 11 -6 24 -19 30 -30z m-4555 10 c19 -21 14 -50 -8 -50 -8
0 -22 9 -32 20 -15 16 -15 22 -5 35 16 20 23 19 45 -5z m1605 0 c0 -5 -16 -12
-35 -16 -27 -5 -35 -11 -35 -28 -1 -21 -1 -21 -12 -1 -6 11 -17 24 -25 28 -25
15 -13 22 47 24 33 1 60 -2 60 -7z m376 -7 c18 -24 17 -33 -4 -33 -21 0 -42
18 -42 37 0 19 31 16 46 -4z m1144 -7 c0 -8 -4 -17 -9 -21 -12 -7 -24 12 -16
25 9 15 25 12 25 -4z m-1359 -14 c15 -13 20 -25 16 -36 -7 -17 -9 -17 -39 1
-38 22 -50 53 -20 53 11 0 30 -8 43 -18z m619 -33 c0 -18 -2 -19 -15 -9 -15
12 -12 30 6 30 5 0 9 -10 9 -21z m910 -19 c0 -5 -4 -10 -10 -10 -5 0 -10 5
-10 10 0 6 5 10 10 10 6 0 10 -4 10 -10z m-2292 -19 c3 -8 -1 -12 -9 -9 -7 2
-15 10 -17 17 -3 8 1 12 9 9 7 -2 15 -10 17 -17z m734 -62 c6 -33 4 -47 -7
-58 -20 -20 -23 -14 -25 44 -2 66 -2 67 12 63 7 -3 16 -24 20 -49z m1488 32
c5 -11 10 -34 10 -51 0 -24 -4 -31 -17 -28 -9 2 -18 12 -19 23 -2 11 -6 32
-10 48 -5 21 -3 27 9 27 9 0 21 -9 27 -19z m243 13 c8 -8 -31 -64 -44 -64 -22
0 -20 31 2 50 26 21 32 23 42 14z m-137 -69 c7 -29 -10 -55 -37 -55 -23 0 -25
27 -3 58 20 29 32 28 40 -3z m444 0 c0 -8 -4 -15 -10 -15 -5 0 -10 7 -10 15 0
8 5 15 10 15 6 0 10 -7 10 -15z m720 -4 c0 -5 3 -16 6 -25 4 -11 0 -16 -14
-16 -24 0 -36 15 -28 35 6 16 36 21 36 6z m-3000 -11 c0 -5 -5 -10 -11 -10 -5
0 -7 5 -4 10 3 6 8 10 11 10 2 0 4 -4 4 -10z m2000 0 c0 -5 -2 -10 -4 -10 -3
0 -8 5 -11 10 -3 6 -1 10 4 10 6 0 11 -4 11 -10z m-3084 -11 c8 -14 -11 -33
-25 -25 -11 7 -4 36 9 36 5 0 12 -5 16 -11z m1192 -21 c-3 -7 -11 -13 -18 -13
-7 0 -15 6 -17 13 -3 7 4 12 17 12 13 0 20 -5 18 -12z m1500 -20 c-5 -16 -48
-24 -48 -9 0 8 17 16 43 20 5 0 7 -5 5 -11z m154 -25 c23 -22 30 -24 43 -13
13 11 19 11 33 -3 15 -16 13 -17 -38 -17 -57 0 -93 20 -83 46 7 19 13 18 45
-13z m-1602 8 c0 -5 -7 -14 -15 -21 -12 -10 -18 -10 -30 0 -8 7 -12 16 -9 21
7 12 54 12 54 0z m1531 -1 c18 -10 18 -12 3 -42 -16 -30 -15 -32 7 -49 15 -12
41 -19 72 -19 52 0 67 -23 22 -34 -21 -5 -24 -11 -19 -31 4 -15 2 -25 -5 -25
-6 0 -11 11 -11 24 0 14 -10 30 -25 40 -37 24 -55 20 -55 -12 0 -34 -7 -43
-26 -35 -13 5 -13 8 1 23 9 10 14 31 13 49 -3 39 -18 53 -18 16 0 -14 -9 -33
-20 -42 -11 -10 -20 -25 -20 -35 0 -29 -18 -21 -25 11 -7 31 16 89 41 104 8 4
14 21 14 37 0 32 16 38 51 20z m-141 -41 c0 -5 -4 -9 -10 -9 -5 0 -10 7 -10
16 0 8 5 12 10 9 6 -3 10 -10 10 -16z m-2655 1 c3 -5 -1 -10 -9 -10 -9 0 -16
5 -16 10 0 6 4 10 9 10 6 0 13 -4 16 -10z m3808 -29 c4 -1 7 -7 7 -15 0 -18
103 -50 131 -41 27 9 24 -12 -6 -31 -28 -18 -164 -29 -147 -12 6 6 7 22 1 41
-12 41 -25 53 -42 38 -11 -9 -17 -8 -26 2 -19 24 4 29 82 18z m-3183 -26 c0
-8 -4 -15 -10 -15 -5 0 -10 7 -10 15 0 8 5 15 10 15 6 0 10 -7 10 -15z m430
-39 c-19 -45 -40 -54 -40 -18 0 15 50 75 57 68 2 -2 -6 -24 -17 -50z m80 -10
c0 -17 -14 -29 -23 -20 -8 8 3 34 14 34 5 0 9 -6 9 -14z m-541 -41 c4 -21 -23
-45 -51 -45 -24 0 -23 11 3 44 23 29 42 30 48 1z m2361 5 c0 -5 -9 -10 -19
-10 -11 0 -23 5 -26 10 -4 6 5 10 19 10 14 0 26 -4 26 -10z m-2470 -52 c0 -4
-9 -8 -20 -8 -21 0 -24 8 -13 36 6 16 7 16 20 -2 7 -10 13 -21 13 -26z m2208
2 c2 -14 -1 -20 -5 -14 -12 17 -50 26 -58 14 -11 -17 -25 -11 -25 11 0 18 5
20 43 17 36 -3 42 -6 45 -28z m802 -9 c0 -23 -16 -36 -25 -21 -9 14 1 40 15
40 5 0 10 -9 10 -19z m-2790 -11 c0 -5 -5 -10 -11 -10 -5 0 -7 5 -4 10 3 6 8
10 11 10 2 0 4 -4 4 -10z m1835 -10 c3 -5 -1 -10 -10 -10 -9 0 -13 5 -10 10 3
6 8 10 10 10 2 0 7 -4 10 -10z m-2105 -26 c0 -14 -12 -19 -23 -8 -9 9 4 35 14
28 5 -3 9 -12 9 -20z m2371 -73 c-28 -18 -26 -35 4 -59 38 -30 48 -66 25 -87
-17 -15 -24 -16 -50 -5 -34 14 -37 26 -15 57 8 12 12 30 9 40 -12 36 -29 68
-41 76 -19 12 -16 26 5 21 9 -3 31 4 47 14 l30 19 3 -31 c3 -22 -2 -35 -17
-45z m-276 39 c3 -5 1 -10 -4 -10 -6 0 -11 5 -11 10 0 6 2 10 4 10 3 0 8 -4
11 -10z m-2020 -20 c9 -28 0 -38 -30 -32 -24 4 -34 30 -18 45 13 14 42 6 48
-13z m2595 -5 c0 -8 -4 -15 -10 -15 -5 0 -10 7 -10 15 0 8 5 15 10 15 6 0 10
-7 10 -15z m761 -26 c18 -23 28 -44 23 -49 -5 -5 -31 -6 -57 -3 -90 11 -103
86 -15 92 9 0 31 -17 49 -40z m-3431 23 c0 -4 -5 -13 -12 -20 -18 -18 -28 -15
-28 8 0 13 7 20 20 20 11 0 20 -4 20 -8z m615 -49 c-9 -36 -35 -73 -51 -73
-10 0 -14 14 -14 50 0 36 -4 52 -15 56 -8 4 -13 10 -10 14 3 5 26 2 51 -7 41
-14 45 -18 39 -40z m1875 47 c0 -5 -2 -10 -4 -10 -3 0 -8 5 -11 10 -3 6 -1 10
4 10 6 0 11 -4 11 -10z m398 -39 c2 -13 -4 -31 -13 -41 -15 -16 -21 -17 -53
-6 -44 16 -54 43 -19 51 14 4 28 16 31 27 5 20 7 20 28 6 13 -8 24 -25 26 -37z
m667 39 c-3 -5 -10 -10 -16 -10 -5 0 -9 5 -9 10 0 6 7 10 16 10 8 0 12 -4 9
-10z m-1655 -28 c0 -14 -23 -32 -42 -32 -18 0 -25 20 -11 33 9 10 53 9 53 -1z
m1387 2 c-3 -3 -12 -4 -19 -1 -8 3 -5 6 6 6 11 1 17 -2 13 -5z m-2135 -67
c-16 -30 -21 -51 -16 -74 6 -29 4 -30 -20 -26 -21 4 -26 1 -26 -15 0 -11 -7
-25 -15 -32 -8 -7 -15 -18 -15 -25 0 -6 -9 -22 -20 -35 -13 -15 -20 -37 -20
-66 0 -24 -5 -46 -11 -50 -14 -8 -69 45 -69 68 0 12 -5 15 -16 11 -15 -5 -15
-4 0 20 10 14 31 29 49 33 45 9 57 22 57 59 0 20 6 35 15 39 8 3 15 15 15 27
0 14 10 24 30 32 25 9 30 17 30 44 0 34 27 60 45 42 6 -6 2 -24 -13 -52z
m1848 38 c0 -13 -29 -35 -44 -35 -12 0 -5 29 10 44 17 18 34 13 34 -9z m500 5
c0 -5 -5 -10 -11 -10 -5 0 -7 5 -4 10 3 6 8 10 11 10 2 0 4 -4 4 -10z m-2660
-70 c0 -5 -9 -14 -20 -20 -32 -17 -24 -36 25 -59 48 -23 56 -36 26 -44 -16 -4
-20 -17 -25 -83 -4 -44 -9 -96 -11 -116 -5 -37 -5 -37 24 -32 25 5 31 2 45
-27 32 -64 9 -132 -37 -107 -14 7 -22 4 -38 -16 -11 -15 -25 -24 -30 -20 -5 3
-7 9 -4 14 3 5 -2 16 -11 25 -10 10 -14 26 -11 42 4 19 -3 32 -27 54 -17 16
-37 29 -44 29 -15 0 -42 59 -42 89 0 20 32 37 50 26 5 -3 12 6 16 21 5 21 2
31 -13 44 -20 16 -20 17 -2 28 14 9 19 24 19 57 0 42 -2 45 -19 36 -14 -8 -22
-7 -31 4 -19 23 -4 43 37 51 21 4 49 12 63 19 25 13 60 4 60 -15z m2285 10 c5
-8 11 -7 21 1 19 16 59 -2 67 -30 6 -25 -9 -37 -28 -21 -8 6 -35 15 -62 18
-34 5 -49 12 -51 25 -3 12 3 17 22 17 14 0 28 -5 31 -10z m-2621 -35 c8 -8 20
-40 26 -70 13 -63 28 -75 90 -75 34 0 41 -3 38 -17 -3 -15 -14 -18 -58 -18
-44 0 -60 4 -82 24 -22 21 -25 28 -15 48 8 17 7 27 -1 35 -9 9 -13 4 -18 -20
-5 -25 -10 -30 -19 -22 -8 7 -12 31 -10 68 2 31 3 58 4 60 3 8 32 0 45 -13z
m2304 -21 c1 -16 -2 -36 -8 -44 -9 -13 -11 -13 -20 0 -11 17 -13 63 -3 74 13
13 28 -1 31 -30z m-868 -45 c0 -5 -4 -9 -10 -9 -5 0 -10 7 -10 16 0 8 5 12 10
9 6 -3 10 -10 10 -16z m1238 -11 c-3 -7 -11 -13 -18 -13 -7 0 -15 6 -17 13 -3
7 4 12 17 12 13 0 20 -5 18 -12z m-2891 -32 c12 -14 31 -26 41 -26 28 0 41
-40 23 -68 -13 -20 -130 -25 -138 -6 -3 8 2 23 11 33 22 24 20 43 -9 64 -32
23 -46 14 -42 -26 2 -28 -1 -32 -25 -35 -34 -4 -36 13 -7 62 20 34 22 35 72
32 40 -3 56 -9 74 -30z m1577 -1 c8 -39 2 -55 -19 -55 -15 0 -25 22 -25 54 0
49 35 49 44 1z m116 25 c0 -5 -4 -10 -9 -10 -6 0 -13 5 -16 10 -3 6 1 10 9 10
9 0 16 -4 16 -10z m-1025 -20 c3 -5 -1 -10 -10 -10 -9 0 -13 5 -10 10 3 6 8
10 10 10 2 0 7 -4 10 -10z m523 -42 c3 -23 -1 -28 -17 -28 -19 0 -41 26 -41
50 0 6 12 10 28 8 21 -2 28 -9 30 -30z m606 -16 c-28 -43 -58 -16 -33 30 10
19 12 19 27 4 13 -13 14 -20 6 -34z m1016 27 c0 -12 -29 -24 -37 -16 -3 4 -3
13 0 21 6 16 37 11 37 -5z m-725 -49 c7 -11 -42 -37 -51 -27 -4 3 -4 13 -1 22
7 17 42 21 52 5z m-537 -61 c2 -23 2 -23 -13 -5 -18 24 -20 39 -2 34 6 -3 13
-15 15 -29z m-70 -17 c3 -21 -20 -51 -39 -52 -14 0 -18 31 -7 56 14 30 42 28
46 -4z m839 -24 c-3 -8 -6 -5 -6 6 -1 11 2 17 5 13 3 -3 4 -12 1 -19z m-1137
-3 c0 -15 -26 -32 -36 -23 -2 3 -2 13 2 22 8 20 34 21 34 1z m620 0 c0 -8 -4
-15 -10 -15 -5 0 -10 7 -10 15 0 8 5 15 10 15 6 0 10 -7 10 -15z m-1550 -10
c0 -8 -4 -15 -10 -15 -5 0 -10 7 -10 15 0 8 5 15 10 15 6 0 10 -7 10 -15z
m491 -15 c15 0 20 -6 17 -22 -4 -33 -52 -32 -56 0 -2 13 0 31 4 40 7 16 7 16
11 0 3 -10 13 -18 24 -18z m223 -11 c14 -13 -13 -39 -42 -39 -13 0 -31 -8 -38
-17 -13 -17 -15 -17 -29 1 -13 17 -13 21 0 36 8 9 15 22 15 28 0 14 78 6 94
-9z m1296 9 c0 -7 -14 -21 -30 -30 -17 -9 -30 -23 -30 -31 0 -20 -36 -49 -56
-45 -9 1 -22 11 -28 20 -15 24 14 53 78 77 61 24 66 25 66 9z m-836 -24 c4 -9
4 -19 2 -21 -8 -8 -26 8 -26 23 0 19 16 18 24 -2z m429 -31 c29 -14 36 -40 12
-49 -18 -7 -44 12 -55 41 -8 21 -2 43 9 28 3 -4 18 -14 34 -20z m-1428 -23
c22 -8 26 -15 23 -41 -5 -47 -31 -59 -63 -29 -23 21 -27 22 -51 10 -30 -17
-57 -4 -62 29 -3 17 2 21 21 21 14 0 30 -7 37 -15 18 -22 29 -19 36 10 7 27
19 30 59 15z m1005 -20 c0 -5 -4 -10 -9 -10 -6 0 -13 5 -16 10 -3 6 1 10 9 10
9 0 16 -4 16 -10z m-700 -25 c9 -11 8 -19 -4 -37 -9 -12 -16 -34 -16 -48 0
-15 -11 -36 -24 -49 -23 -21 -24 -21 -54 -4 -38 22 -40 35 -7 53 14 7 25 22
25 32 0 28 30 68 50 68 10 0 23 -7 30 -15z m1238 3 c-5 -15 -48 -24 -48 -10 0
14 12 22 33 22 10 0 17 -5 15 -12z m-678 -27 c0 -22 -29 -36 -43 -22 -15 15 0
41 23 41 13 0 20 -7 20 -19z m395 -2 c9 -14 -24 -49 -46 -49 -29 0 -34 22 -9
42 25 20 46 23 55 7z m-870 -29 c0 -36 -29 -33 -33 3 -3 23 0 28 15 25 12 -2
18 -12 18 -28z m1065 16 c0 -16 -18 -31 -27 -22 -8 8 5 36 17 36 5 0 10 -6 10
-14z m-1005 -56 c3 -5 30 -21 59 -34 51 -23 73 -47 60 -67 -8 -14 -92 -11
-122 5 -23 12 -28 21 -30 60 -1 34 2 46 13 46 7 0 17 -4 20 -10z m492 -17 c22
-34 8 -43 -69 -46 -69 -2 -102 12 -91 40 8 20 39 30 96 31 40 0 51 -4 64 -25z"/>
<path d="M4970 6490 c-8 -5 -11 -12 -7 -16 4 -4 13 -2 19 4 15 15 7 24 -12 12z"/>
<path d="M4755 6481 c-7 -12 12 -24 25 -16 11 7 4 25 -10 25 -5 0 -11 -4 -15
-9z"/>
<path d="M4770 6426 c0 -33 12 -39 39 -20 28 20 23 36 -12 41 -23 3 -27 0 -27
-21z"/>
<path d="M4314 6402 c-17 -11 -25 -45 -15 -61 8 -12 12 -12 25 -2 9 8 16 20
16 28 0 7 7 16 15 19 8 4 15 10 15 15 0 11 -40 12 -56 1z"/>
<path d="M4090 5881 c0 -5 -3 -16 -6 -25 -4 -11 -1 -16 10 -16 10 0 16 9 16
25 0 14 -4 25 -10 25 -5 0 -10 -4 -10 -9z"/>
<path d="M5075 5510 c-3 -5 -1 -10 4 -10 6 0 11 5 11 10 0 6 -2 10 -4 10 -3 0
-8 -4 -11 -10z"/>
<path d="M3703 5155 c-14 -14 -23 -34 -23 -54 0 -26 -3 -31 -17 -27 -20 5 -68
-47 -58 -64 3 -6 20 -17 37 -26 38 -20 60 -5 40 27 -12 19 -11 20 6 15 23 -8
52 17 52 43 0 10 3 39 6 65 8 53 -6 59 -43 21z"/>
<path d="M3580 4820 c0 -11 5 -20 10 -20 6 0 10 9 10 20 0 11 -4 20 -10 20 -5
0 -10 -9 -10 -20z"/>
<path d="M3906 4561 c-19 -21 -14 -41 10 -41 19 0 28 24 17 45 -8 14 -11 14
-27 -4z"/>
<path d="M3620 4504 c0 -8 5 -12 10 -9 6 3 10 10 10 16 0 5 -4 9 -10 9 -5 0
-10 -7 -10 -16z"/>
<path d="M3417 4183 c-15 -15 -7 -43 13 -43 15 0 20 7 20 25 0 24 -18 34 -33
18z"/>
<path d="M3863 4065 c-18 -13 -29 -13 -67 -3 -39 10 -48 10 -61 -2 -21 -22 -6
-37 47 -42 52 -6 108 19 108 47 0 19 -1 19 -27 0z"/>
<path d="M6516 5935 c-23 -23 -20 -35 8 -35 31 0 43 18 24 37 -13 13 -17 12
-32 -2z"/>
<path d="M5290 4401 c0 -23 14 -41 30 -41 28 0 35 19 14 35 -22 16 -44 19 -44
6z"/>
<path d="M5441 4364 c-12 -15 -21 -38 -21 -52 0 -17 -13 -38 -41 -63 -49 -44
-45 -63 11 -54 32 5 38 3 43 -14 6 -25 27 -28 27 -3 0 25 -16 46 -29 38 -7 -4
-11 1 -11 12 0 13 9 22 24 26 22 5 24 11 24 71 0 36 -2 65 -4 65 -1 0 -12 -12
-23 -26z"/>
<path d="M5325 4299 c-10 -15 3 -25 16 -12 7 7 7 13 1 17 -6 3 -14 1 -17 -5z"/>
<path d="M5431 4121 c-11 -19 -10 -26 3 -39 13 -14 16 -14 21 -1 3 9 2 26 -3
39 l-9 24 -12 -23z"/>
<path d="M7440 4847 c0 -27 26 -50 48 -43 27 9 28 24 5 42 -23 17 -53 18 -53
1z"/>
<path d="M7544 4755 c-4 -8 -3 -26 0 -39 6 -26 63 -92 72 -83 3 2 7 25 10 50
4 40 2 47 -22 66 -31 25 -52 27 -60 6z"/>
<path d="M5890 7901 c0 -16 49 -69 98 -105 29 -21 65 -62 92 -106 25 -40 71
-104 103 -142 31 -39 57 -74 57 -78 0 -4 16 -27 35 -51 19 -24 35 -50 35 -58
0 -8 3 -11 6 -8 12 12 -38 117 -67 141 -16 14 -29 27 -29 31 0 19 -218 298
-264 338 -56 48 -66 54 -66 38z"/>
<path d="M5099 7483 c-55 -38 -186 -199 -222 -273 -20 -41 -37 -81 -37 -88 0
-21 21 -3 36 32 15 33 54 85 119 161 110 128 108 127 171 140 39 8 59 16 59
26 0 22 -94 24 -126 2z"/>
<path d="M6340 7305 c1 -23 27 -62 36 -52 4 3 -3 21 -15 39 -16 26 -21 29 -21
13z"/>
<path d="M4828 7094 c-5 -4 -8 -19 -8 -33 1 -23 2 -24 11 -8 11 19 9 53 -3 41z"/>
<path d="M5202 7038 c-14 -14 -16 -44 -3 -52 7 -5 31 42 31 60 0 8 -17 3 -28
-8z"/>
<path d="M4767 6962 c-9 -10 -22 -34 -29 -53 -6 -19 -22 -50 -35 -69 -23 -34
-30 -60 -15 -60 11 1 99 142 106 173 7 31 -4 35 -27 9z"/>
<path d="M6794 6469 c-7 -12 12 -29 34 -29 10 0 10 5 2 20 -12 22 -25 26 -36
9z"/>
<path d="M7004 6152 c-15 -23 6 -55 33 -50 22 4 29 34 13 53 -17 20 -33 19
-46 -3z"/>
<path d="M6080 5435 c0 -14 5 -25 10 -25 6 0 10 11 10 25 0 14 -4 25 -10 25
-5 0 -10 -11 -10 -25z"/>
<path d="M6405 5430 c-15 -16 -16 -22 -5 -35 11 -13 11 -20 0 -40 -14 -26 -7
-60 11 -49 7 4 21 7 32 8 21 1 57 66 37 66 -5 0 -10 -8 -10 -17 0 -14 -2 -15
-9 -4 -5 7 -6 21 -4 31 5 19 -12 60 -26 60 -4 0 -16 -9 -26 -20z"/>
<path d="M7630 5345 c-11 -14 -8 -21 23 -50 61 -58 91 -44 51 23 -26 44 -52
53 -74 27z"/>
<path d="M6112 5338 c-14 -14 -16 -38 -3 -38 10 0 26 39 19 46 -2 2 -10 -2
-16 -8z"/>
<path d="M6388 5243 c6 -3 12 -13 12 -23 0 -10 8 -28 19 -41 26 -32 10 -79
-26 -79 -30 0 -29 -33 2 -38 30 -6 41 -20 27 -34 -15 -15 -16 -45 -1 -54 18
-11 29 10 33 64 4 58 17 79 49 84 30 4 28 31 -3 38 -22 6 -25 11 -23 43 2 35
1 37 -30 37 -18 0 -41 2 -52 4 -11 2 -14 1 -7 -1z"/>
<path d="M6130 5204 c0 -8 5 -12 10 -9 6 4 8 11 5 16 -9 14 -15 11 -15 -7z"/>
<path d="M6115 5099 c-4 -6 -4 -13 -1 -16 8 -8 36 5 36 17 0 13 -27 13 -35 -1z"/>
<path d="M6393 4794 c-8 -21 13 -42 28 -27 13 13 5 43 -11 43 -6 0 -13 -7 -17
-16z"/>
<path d="M6170 4296 c0 -14 5 -26 10 -26 6 0 10 9 10 19 0 11 -4 23 -10 26 -6
4 -10 -5 -10 -19z"/>
</g>
</svg>
