<?xml version="1.0" standalone="no"?>
<!DOCTYPE svg PUBLIC "-//W3C//DTD SVG 20010904//EN"
 "http://www.w3.org/TR/2001/REC-SVG-20010904/DTD/svg10.dtd">
<svg version="1.0" xmlns="http://www.w3.org/2000/svg"
 width="300.000000pt" height="300.000000pt" viewBox="0 0 300.000000 300.000000"
 preserveAspectRatio="xMidYMid meet">
<metadata>
Created by potrace 1.10, written by Peter Selinger 2001-2011
</metadata>
<g transform="translate(0.000000,300.000000) scale(0.100000,-0.100000)"
fill="#000000" stroke="none">
<path d="M1335 2640 c-22 -5 -52 -13 -66 -18 -38 -15 -148 -107 -192 -160 -57
-68 -119 -198 -142 -297 -10 -41 -6 -246 4 -259 5 -6 12 -25 15 -42 4 -17 22
-46 40 -64 67 -64 111 -239 121 -485 5 -116 3 -174 -9 -255 -41 -258 -39 -353
10 -437 44 -77 137 -112 236 -89 77 18 101 35 215 156 105 111 166 196 253
350 30 52 68 120 85 150 44 79 66 127 82 185 70 242 85 346 85 565 0 182 -16
289 -52 342 -48 71 -162 197 -215 237 -105 79 -357 144 -470 121z m240 -56
c174 -60 184 -65 255 -131 71 -66 146 -157 174 -211 23 -44 39 -247 32 -397
-10 -211 -37 -344 -92 -462 -19 -40 -31 -78 -29 -86 3 -7 -18 -56 -46 -108
-151 -277 -179 -318 -327 -478 -106 -114 -166 -151 -245 -151 -47 0 -114 27
-138 56 -48 57 -58 215 -26 403 47 282 -3 674 -98 780 -54 60 -75 120 -75 215
0 148 38 278 115 390 53 78 176 182 230 196 57 13 211 5 270 -16z"/>
<path d="M1314 2462 c-28 -22 -62 -54 -75 -71 -13 -16 -41 -50 -61 -73 -83
-96 -99 -229 -42 -343 47 -92 263 -285 319 -285 30 0 9 24 -61 72 -88 61 -200
179 -230 243 -40 83 -31 188 22 268 18 28 29 36 36 29 8 -8 8 -15 -1 -26 -23
-28 -32 -82 -25 -162 6 -78 8 -83 47 -125 23 -24 67 -62 98 -84 153 -108 197
-150 214 -205 4 -14 16 -37 26 -52 11 -14 19 -32 19 -40 0 -8 4 -18 10 -24 14
-14 15 -66 2 -91 -7 -12 -12 -40 -12 -62 0 -22 -5 -43 -10 -46 -5 -3 -10 -15
-10 -26 0 -10 -5 -19 -10 -19 -6 0 -14 -8 -17 -17 -10 -29 -53 -76 -81 -91
-53 -27 -89 -61 -123 -116 -19 -31 -38 -54 -44 -52 -13 4 -8 121 6 148 7 12
14 81 17 153 5 128 4 132 -22 176 -35 58 -69 130 -64 134 2 3 17 -3 33 -11 35
-19 225 -94 237 -94 13 0 9 27 -4 33 -7 3 -53 22 -103 42 -49 20 -109 45 -132
55 -49 23 -74 25 -91 8 -14 -14 -16 -94 -2 -103 6 -3 10 -14 10 -25 0 -10 14
-49 31 -87 30 -65 31 -72 25 -163 -3 -52 -10 -111 -16 -130 -17 -61 -13 -114
13 -137 50 -46 140 -30 154 27 7 32 36 64 93 103 52 36 80 63 98 97 7 14 20
38 29 54 19 35 31 80 43 156 9 51 7 60 -25 125 -19 39 -35 75 -35 81 0 24 -85
112 -172 179 -151 116 -178 145 -180 196 -3 86 3 181 12 199 6 10 10 29 10 43
0 15 20 45 54 82 l55 58 63 -6 c119 -12 263 -80 306 -145 9 -14 37 -47 62 -73
84 -87 93 -115 98 -274 3 -136 -3 -185 -37 -307 -6 -21 -15 -53 -20 -70 -11
-45 -94 -213 -114 -233 -20 -19 -21 -31 -6 -41 34 -21 136 180 187 371 24 88
31 148 33 277 1 121 -1 138 -21 174 -27 47 -54 83 -114 149 -25 27 -46 53 -46
57 0 4 -28 28 -62 53 -71 52 -189 94 -283 102 -58 5 -62 4 -111 -35z m-43
-942 c9 -8 18 -50 10 -50 -9 0 -41 72 -40 91 0 8 6 3 12 -11 6 -14 14 -27 18
-30z"/>
<path d="M1443 980 c-18 -4 -48 -19 -66 -33 -28 -21 -87 -44 -135 -51 -7 -1
-17 -7 -24 -14 -41 -41 117 -9 167 34 28 24 69 37 120 38 20 1 30 6 30 16 0
18 -43 22 -92 10z"/>
</g>
</svg>
