<?xml version="1.0" standalone="no"?>
<!DOCTYPE svg PUBLIC "-//W3C//DTD SVG 20010904//EN"
 "http://www.w3.org/TR/2001/REC-SVG-20010904/DTD/svg10.dtd">
<svg version="1.0" xmlns="http://www.w3.org/2000/svg"
 width="1080.000000pt" height="1080.000000pt" viewBox="0 0 1080.000000 1080.000000"
 preserveAspectRatio="xMidYMid meet">

<g transform="translate(0.000000,1080.000000) scale(0.100000,-0.100000)"
fill="#000000" stroke="none">
<path d="M5782 8096 c-78 -46 -119 -95 -182 -217 -48 -94 -89 -114 -167 -85
-85 32 -200 39 -374 21 -223 -23 -339 -66 -497 -183 -149 -109 -196 -163 -294
-333 -88 -153 -102 -196 -101 -315 1 -92 5 -112 52 -248 51 -152 75 -201 91
-191 15 10 13 25 -30 162 -77 245 -77 338 3 506 80 170 175 286 322 394 171
128 467 196 698 162 118 -17 187 -52 187 -94 0 -38 -94 -295 -175 -476 -41
-93 -75 -171 -75 -175 0 -4 -12 -32 -27 -63 -14 -31 -34 -89 -45 -130 -22 -91
-82 -260 -115 -324 -13 -27 -38 -88 -55 -135 -30 -85 -75 -188 -100 -227 -7
-11 -20 -31 -29 -45 -10 -14 -37 -63 -62 -110 -24 -47 -72 -134 -107 -195 -34
-60 -84 -148 -110 -195 -26 -47 -72 -130 -103 -185 -31 -55 -63 -121 -72 -147
-8 -26 -34 -78 -56 -115 -22 -37 -51 -92 -65 -122 -127 -273 -244 -483 -312
-566 -14 -16 -56 -95 -94 -175 -38 -80 -86 -167 -107 -195 -20 -27 -58 -88
-84 -135 -25 -47 -76 -130 -111 -185 -36 -55 -87 -136 -115 -180 -27 -44 -67
-104 -89 -133 -22 -29 -50 -81 -62 -115 -13 -34 -40 -103 -62 -154 -21 -51
-38 -98 -38 -106 0 -8 -12 -50 -26 -95 -53 -171 14 -132 145 83 44 72 95 148
114 170 54 61 136 188 152 235 17 47 131 277 148 298 5 7 29 50 52 95 23 45
65 125 94 177 30 52 71 134 92 182 40 90 134 256 224 393 29 44 73 118 98 165
24 47 58 106 74 130 17 25 50 83 75 130 90 172 270 474 289 485 5 4 30 48 56
98 25 51 59 111 75 135 16 23 98 179 182 345 204 402 220 430 346 582 36 44
77 96 90 115 13 19 39 52 57 73 18 20 33 42 33 47 0 6 14 30 30 53 17 23 53
77 80 119 45 69 81 108 101 108 16 0 29 -69 29 -149 0 -106 -20 -258 -54 -414
-60 -276 -6 -571 135 -731 48 -54 152 -126 254 -175 39 -19 101 -54 138 -78
70 -45 130 -73 153 -73 25 0 14 25 -19 41 -18 9 -77 40 -131 68 -55 28 -105
51 -111 51 -7 0 -18 7 -25 15 -7 8 -44 36 -81 61 -109 72 -172 136 -214 214
-77 149 -96 374 -50 595 40 185 45 221 51 360 6 105 4 141 -10 187 -22 77 -20
140 5 191 28 56 123 218 169 288 45 69 84 197 77 251 -8 62 -80 173 -131 203
-65 38 -115 34 -204 -19z m146 -188 c23 -23 12 -78 -32 -166 -24 -48 -56 -104
-70 -125 -14 -21 -26 -44 -26 -50 0 -18 -21 -37 -41 -37 -22 0 -59 51 -59 80
0 12 19 50 43 84 24 33 62 94 86 134 52 86 74 105 99 80z m-219 -435 c17 -60
15 -67 -56 -206 -61 -122 -105 -187 -125 -187 -13 0 -9 60 6 88 8 15 23 54 32
87 10 33 27 83 40 110 12 28 25 61 29 75 11 38 34 70 50 70 8 0 19 -17 24 -37z"/>
<path d="M6660 5531 c15 -9 54 -15 80 -11 27 3 -22 19 -60 19 -25 0 -31 -2
-20 -8z"/>
<path d="M6884 5452 c11 -18 193 -98 202 -89 10 10 -70 56 -111 63 -22 4 -53
13 -69 21 -15 8 -25 10 -22 5z"/>
<path d="M7247 5126 c-4 -10 -5 -21 -3 -25 2 -3 10 -52 16 -108 23 -194 -10
-348 -123 -583 -46 -96 -66 -125 -115 -170 -85 -79 -256 -214 -337 -267 -81
-52 -111 -78 -98 -86 5 -3 47 22 94 56 46 35 102 73 124 87 47 28 168 126 237
190 85 80 188 292 234 480 30 119 23 380 -10 425 -12 17 -13 17 -19 1z"/>
<path d="M6540 3865 c-16 -19 -1 -19 24 0 16 12 17 15 4 15 -8 0 -21 -7 -28
-15z"/>
<path d="M6129 3493 c-112 -116 -232 -345 -266 -503 -42 -201 -13 -417 74
-547 24 -36 43 -66 43 -69 0 -16 101 -136 141 -167 117 -91 334 -147 563 -147
144 0 279 26 364 69 57 29 217 175 236 216 28 58 16 315 -14 315 -15 0 -20
-32 -20 -123 -1 -112 -19 -170 -78 -248 -92 -122 -215 -173 -450 -186 -111 -6
-130 -4 -263 26 -191 43 -242 62 -320 121 -212 159 -298 445 -229 760 26 119
98 271 198 420 90 132 91 136 21 63z"/>
</g>
</svg>
