<?xml version="1.0" standalone="no"?>
<!DOCTYPE svg PUBLIC "-//W3C//DTD SVG 20010904//EN"
 "http://www.w3.org/TR/2001/REC-SVG-20010904/DTD/svg10.dtd">
<svg version="1.0" xmlns="http://www.w3.org/2000/svg"
 width="1080.000000pt" height="1080.000000pt" viewBox="0 0 1080.000000 1080.000000"
 preserveAspectRatio="xMidYMid meet">

<g transform="translate(0.000000,1080.000000) scale(0.100000,-0.100000)"
fill="#000000" stroke="none">
<path d="M5282 8530 c-23 -10 -86 -62 -140 -114 -92 -89 -204 -176 -227 -176
-6 0 -26 -11 -45 -23 -19 -13 -87 -45 -150 -70 -147 -60 -284 -129 -279 -142
2 -5 9 -9 14 -8 36 7 172 59 240 92 44 21 112 49 150 61 39 13 79 32 91 42 24
21 76 38 117 38 22 0 44 16 96 68 37 37 86 91 110 120 36 44 48 52 76 52 40 0
55 -13 77 -66 27 -69 38 -109 44 -175 4 -35 17 -85 30 -110 13 -26 33 -87 44
-135 12 -49 32 -128 46 -175 14 -51 24 -112 24 -151 0 -35 9 -105 19 -154 28
-131 58 -492 55 -664 -1 -47 -7 -164 -14 -260 -6 -96 -11 -234 -11 -306 0 -71
-6 -184 -15 -250 -8 -65 -19 -168 -24 -229 -6 -71 -20 -147 -39 -214 -17 -57
-31 -110 -31 -118 0 -9 -6 -36 -14 -62 -8 -25 -24 -77 -35 -116 -44 -148 -81
-266 -89 -283 -5 -9 -20 -39 -33 -67 -39 -80 -172 -298 -222 -363 -26 -33 -66
-75 -89 -93 -24 -18 -56 -46 -73 -62 -35 -34 -201 -117 -233 -117 -13 0 -52
-9 -87 -21 -51 -16 -71 -18 -97 -11 -46 14 -113 30 -178 43 -116 23 -267 89
-400 174 -36 23 -87 52 -113 63 -57 25 -186 128 -242 191 -21 26 -92 100 -157
166 -123 126 -221 260 -232 318 -4 21 -24 54 -51 83 -25 27 -45 52 -45 56 0 3
-26 62 -59 130 -32 67 -67 146 -77 173 -10 28 -26 64 -36 80 -44 75 -62 114
-92 204 -18 53 -68 197 -111 321 -43 124 -83 248 -91 275 -7 28 -28 88 -48
135 -20 47 -36 98 -36 113 0 15 -6 40 -14 55 -7 15 -19 54 -26 87 -7 33 -21
78 -31 99 -11 23 -19 61 -19 89 0 28 -9 89 -19 136 -11 47 -25 111 -32 141
-15 64 -20 465 -7 493 12 23 59 22 105 -3 24 -13 57 -20 90 -20 41 0 58 -5 82
-26 42 -35 193 -81 316 -97 203 -25 644 -9 731 28 20 8 50 15 66 15 17 0 61 9
99 20 38 11 102 29 142 41 39 11 88 31 107 44 19 12 59 28 88 35 29 7 62 20
75 31 l22 18 -25 1 c-14 0 -52 -13 -85 -28 -33 -16 -94 -39 -135 -51 -41 -12
-102 -31 -135 -42 -33 -11 -82 -26 -110 -35 -106 -33 -713 -46 -845 -18 -36 8
-85 14 -110 14 -25 1 -63 8 -85 16 -22 8 -65 21 -95 28 -30 8 -93 30 -140 51
-150 65 -167 70 -183 57 -41 -35 -55 -211 -33 -429 17 -167 29 -230 73 -368
14 -44 26 -96 27 -115 3 -46 21 -128 58 -270 57 -213 76 -275 102 -337 15 -34
35 -95 46 -135 40 -152 51 -185 115 -343 36 -90 65 -169 65 -175 0 -17 84
-213 142 -330 29 -58 77 -142 107 -188 31 -46 83 -130 116 -187 93 -161 411
-497 524 -555 27 -14 98 -54 158 -89 155 -92 230 -133 298 -163 61 -27 257
-68 326 -68 77 0 91 -38 100 -270 18 -493 30 -578 109 -765 20 -49 41 -101 46
-115 32 -91 84 -160 224 -298 150 -148 230 -206 334 -242 70 -24 290 -34 456
-22 112 9 143 16 293 66 172 58 285 114 452 226 74 50 341 310 421 410 15 19
58 67 96 105 38 39 83 92 101 117 17 26 50 73 72 105 23 32 62 84 87 115 25
31 63 87 84 125 51 93 120 190 149 209 13 8 30 32 39 54 8 21 48 91 87 157 40
65 85 141 100 168 15 28 44 79 63 115 72 130 166 325 166 345 0 11 27 69 60
129 33 59 65 129 71 154 14 67 43 142 99 257 27 55 54 120 60 145 17 68 50
170 71 215 9 22 23 63 30 90 7 28 25 80 41 117 47 111 32 192 -34 189 -13 -1
-114 -4 -226 -7 -186 -5 -208 -4 -271 15 -64 19 -284 55 -501 81 -88 10 -123
19 -283 71 -31 11 -64 19 -72 19 -17 0 -109 29 -190 60 -27 11 -93 36 -145 56
-277 106 -765 411 -887 555 -54 63 -120 230 -133 335 -5 41 -12 79 -15 84 -6
9 -39 242 -50 354 -4 38 -13 87 -21 110 -8 23 -26 86 -40 141 -14 55 -34 125
-45 155 -11 30 -24 73 -29 95 -5 22 -25 85 -44 140 -27 77 -43 107 -70 132
-41 38 -64 40 -124 13z m515 -1642 c21 -12 97 -66 168 -119 72 -53 144 -104
160 -113 17 -9 46 -26 65 -38 75 -46 278 -155 340 -182 36 -16 77 -37 92 -47
34 -25 160 -77 223 -94 28 -7 74 -23 102 -34 29 -11 81 -27 115 -35 60 -13 95
-24 163 -51 50 -20 191 -43 339 -55 138 -12 307 -39 360 -60 34 -12 385 -18
437 -7 28 6 41 3 58 -10 21 -18 21 -19 5 -73 -28 -100 -81 -249 -93 -264 -5
-6 -19 -36 -31 -66 -12 -30 -31 -73 -41 -95 -10 -22 -24 -60 -32 -85 -8 -25
-33 -90 -55 -145 -22 -55 -57 -147 -77 -204 -20 -56 -54 -131 -76 -165 -24
-39 -47 -94 -62 -153 -17 -65 -40 -117 -79 -184 -31 -52 -70 -119 -86 -149
-74 -135 -136 -239 -171 -283 -21 -26 -52 -78 -71 -115 -18 -37 -55 -91 -82
-120 -26 -30 -60 -75 -75 -100 -32 -58 -88 -146 -108 -170 -67 -81 -118 -151
-131 -179 -39 -82 -498 -563 -617 -646 -109 -77 -239 -144 -362 -188 -66 -23
-125 -45 -130 -50 -6 -4 -48 -15 -95 -25 -153 -31 -438 -21 -565 21 -117 39
-181 82 -318 217 -134 132 -165 175 -196 270 -7 20 -24 54 -38 75 -14 21 -32
58 -39 83 -7 25 -25 79 -40 120 -22 64 -26 95 -29 210 -1 74 -7 245 -12 380
-6 135 -6 252 -2 261 4 8 52 33 106 55 54 21 127 55 162 74 79 43 215 160 237
203 9 18 29 48 44 67 15 19 38 55 50 80 13 25 33 59 46 76 13 17 24 34 24 37
0 4 15 30 33 59 47 77 84 170 113 282 31 121 46 151 85 171 26 14 36 14 82 2
88 -24 242 -93 291 -131 26 -19 53 -39 59 -43 7 -5 23 -22 35 -40 24 -34 58
-51 73 -36 5 5 18 60 29 121 19 107 20 118 5 203 -21 118 -24 124 -94 208 -69
82 -88 99 -157 136 -47 25 -53 26 -155 20 -123 -8 -127 -5 -104 72 23 82 45
279 45 411 0 70 5 159 10 197 5 39 12 159 16 268 4 108 8 197 10 197 2 0 20
-10 41 -22z"/>
<path d="M6975 5156 c-5 -2 -44 -14 -85 -27 -118 -36 -184 -75 -277 -163 -91
-86 -85 -136 16 -136 22 0 43 -4 46 -10 3 -5 38 -19 78 -31 40 -11 95 -36 122
-53 28 -18 73 -38 100 -45 28 -7 77 -30 111 -52 33 -21 76 -47 96 -56 20 -10
51 -36 69 -58 72 -84 157 -157 180 -153 57 8 97 131 80 239 -6 35 -11 81 -11
102 0 26 -12 58 -35 98 -19 33 -35 64 -35 68 0 4 -13 35 -30 68 -43 86 -100
128 -241 179 -65 24 -160 39 -184 30z"/>
<path d="M5962 4558 c-21 -21 -13 -56 31 -139 64 -123 130 -170 295 -208 69
-16 97 -19 112 -11 41 22 11 70 -43 70 -44 0 -161 34 -201 59 -64 40 -113 103
-120 157 -11 70 -44 102 -74 72z"/>
<path d="M5520 3890 c-100 -5 -121 -9 -165 -33 -27 -15 -66 -27 -85 -27 -50
-1 -87 -25 -158 -102 -66 -71 -70 -83 -48 -114 14 -19 15 -18 68 7 95 47 121
52 250 44 131 -8 264 -43 348 -93 25 -14 97 -52 160 -84 70 -36 138 -79 175
-111 33 -30 75 -67 93 -83 34 -31 90 -115 118 -176 19 -45 50 -51 60 -12 12
49 -2 177 -26 229 -68 150 -83 181 -96 196 -8 8 -36 51 -62 95 -59 97 -86 129
-132 159 -70 44 -184 86 -265 95 -44 6 -89 11 -100 13 -11 2 -72 0 -135 -3z
m289 -85 c29 -9 72 -26 95 -37 22 -11 61 -30 85 -42 47 -23 104 -90 176 -208
84 -138 88 -146 80 -197 -6 -40 -9 -44 -19 -26 -25 43 -114 129 -179 172 -86
57 -368 198 -450 224 -34 11 -112 24 -174 29 -61 5 -121 14 -133 20 -22 12
-22 12 10 45 40 41 59 44 290 40 120 -2 180 -7 219 -20z"/>
<path d="M4890 7300 c-169 -15 -291 -78 -325 -170 -33 -89 -63 -246 -68 -364
l-5 -119 31 -28 c17 -16 46 -34 64 -40 28 -9 38 -7 66 10 18 11 43 35 56 53
13 18 39 45 57 61 18 15 46 49 62 76 26 41 40 52 87 70 31 12 60 21 64 21 5 0
30 10 57 21 51 23 31 23 331 3 90 -6 103 -5 109 10 9 24 -9 46 -164 203 -188
191 -229 210 -422 193z"/>
<path d="M3690 7063 c-120 -22 -129 -27 -262 -154 -46 -43 -118 -173 -118
-212 0 -10 -9 -35 -20 -57 -11 -22 -20 -44 -20 -49 0 -5 -13 -38 -29 -72 -32
-69 -30 -96 6 -105 34 -9 87 14 158 68 59 44 99 60 200 79 28 5 72 14 98 19
92 19 118 13 253 -51 114 -54 133 -60 164 -52 44 10 49 39 21 106 -11 25 -23
74 -27 109 -3 35 -15 83 -25 107 -11 24 -19 50 -19 58 0 25 -68 130 -98 149
-68 46 -123 64 -190 63 -37 -1 -78 -4 -92 -6z"/>
<path d="M4814 6006 c-20 -19 -80 -56 -133 -83 -87 -43 -104 -48 -176 -51 -44
-2 -141 4 -215 13 -194 25 -241 28 -252 17 -14 -14 -2 -44 29 -66 23 -17 49
-20 212 -24 253 -6 246 -7 306 23 29 14 79 32 110 40 81 22 200 108 193 141
-6 31 -35 27 -74 -10z"/>
<path d="M5178 5928 c-9 -7 -21 -30 -28 -51 -23 -74 -222 -256 -333 -306 -80
-36 -256 -96 -332 -113 -77 -17 -364 -16 -465 1 -83 15 -198 67 -245 110 -46
43 -107 81 -131 81 -11 0 -29 -9 -38 -19 -16 -18 -16 -22 -2 -49 8 -16 32 -42
52 -58 20 -16 55 -49 78 -72 143 -151 207 -206 270 -235 38 -17 119 -76 172
-124 14 -13 28 -23 31 -23 4 0 14 -6 22 -14 9 -8 41 -24 71 -36 65 -26 286
-53 330 -40 39 11 123 57 181 97 26 18 50 33 54 33 5 0 33 24 64 53 53 49 84
86 141 166 39 54 120 225 120 252 0 13 6 35 13 49 8 14 21 57 31 95 10 39 25
94 34 123 17 54 17 54 -7 73 -27 22 -60 25 -83 7z m-22 -213 c4 -16 -1 -39
-15 -65 -12 -23 -26 -61 -31 -85 -10 -43 -35 -99 -95 -213 -37 -69 -117 -159
-174 -196 -81 -52 -235 -126 -261 -126 -14 0 -41 5 -60 10 -19 5 -62 14 -95
19 -94 14 -166 50 -240 120 -41 38 -96 76 -142 99 -81 40 -126 83 -106 103 9
9 37 9 105 1 208 -23 333 -12 578 50 86 22 281 116 325 157 23 22 56 46 71 54
16 9 45 34 64 56 40 47 67 53 76 16z"/>
</g>
</svg>
